<?xml version="1.0" standalone="no"?><svg xmlns:xlink="http://www.w3.org/1999/xlink" xmlns="http://www.w3.org/2000/svg" viewBox="0 0 1000 1600" preserveAspectRatio="xMaxYMax slice"><g transform="scale(2.363367799113737)"><rect x="0" y="0" width="423.125" height="677" fill="#ffffff"/><rect x="338.5" y="84.625" width="42.3125" height="42.3125" fill="#ffffff"/><path d="M 359.66 126.94 A 21.16 21.16 0 0 1  380.82000000000005 105.78 L 359.66 126.94 A 21.16 21.16 0 0 0 380.82000000000005 105.78" fill="#fefefe"/><path d="M 380.81 84.63 A 42.31 42.31 0 0 1  423.12 126.94 L 380.81 84.63 A 42.31 42.31 0 0 0 423.12 126.94" fill="#fdfdfd"/><path d="M 211.56 126.94 A 42.31 42.31 0 0 1  253.87 169.25 L 211.56 126.94 A 42.31 42.31 0 0 0 253.87 169.25" fill="#fefefe"/><path d="M 380.81 169.25 A 42.31 42.31 0 0 1  423.12 126.94 L 380.81 169.25 A 42.31 42.31 0 0 0 423.12 126.94" fill="#faf8f6"/><rect x="42.3125" y="169.25" width="42.3125" height="42.3125" fill="#ffffff"/><path d="M 126.94 169.25 A 42.31 42.31 0 0 1  169.25 211.56 L 126.94 169.25 A 42.31 42.31 0 0 0 169.25 211.56" fill="#fefefe"/><rect x="169.25" y="169.25" width="42.3125" height="42.3125" fill="#ffffff"/><path d="M 190.41 190.41 A 21.16 21.16 0 0 1  211.57 169.25 L 190.41 190.41 A 21.16 21.16 0 0 0 211.57 169.25" fill="#fefefe"/><path d="M 190.41 190.41 A 21.16 21.16 0 0 1  211.57 211.57 L 190.41 190.41 A 21.16 21.16 0 0 0 211.57 211.57" fill="#ffffff"/><path d="M 0 253.87 A 42.31 42.31 0 0 1  42.31 211.56 L 0 253.87 A 42.31 42.31 0 0 0 42.31 211.56" fill="#e6ddd0"/><path d="M 126.94 253.87 A 42.31 42.31 0 0 1  169.25 211.56 L 126.94 253.87 A 42.31 42.31 0 0 0 169.25 211.56" fill="#e9e1d6"/><path d="M 296.19 253.87 A 42.31 42.31 0 0 1  338.5 211.56 L 296.19 253.87 A 42.31 42.31 0 0 0 338.5 211.56" fill="#e7ddd1"/><rect x="0" y="253.875" width="42.3125" height="42.3125" fill="#ffffff"/><path d="M 21.16 253.88 A 21.16 21.16 0 0 1  42.32 275.04 L 21.16 253.88 A 21.16 21.16 0 0 0 42.32 275.04" fill="#fdfdfd"/><path d="M 21.16 296.19 A 21.16 21.16 0 0 1  42.32 275.03 L 21.16 296.19 A 21.16 21.16 0 0 0 42.32 275.03" fill="#fefefd"/><path d="M 126.94 296.19 A 42.31 42.31 0 0 1  169.25 253.88 L 126.94 296.19 A 42.31 42.31 0 0 0 169.25 253.88" fill="#ffffff"/><rect x="211.5625" y="253.875" width="42.3125" height="42.3125" fill="#ffffff"/><path d="M 232.72 275.04 A 21.16 21.16 0 0 1  253.88 253.88 L 232.72 275.04 A 21.16 21.16 0 0 0 253.88 253.88" fill="#fefefe"/><path d="M 232.72 275.03 A 21.16 21.16 0 0 1  253.88 296.19 L 232.72 275.03 A 21.16 21.16 0 0 0 253.88 296.19" fill="#e2d7c9"/><path d="M 253.88 253.88 A 42.31 42.31 0 0 1  296.19 296.19 L 253.88 253.88 A 42.31 42.31 0 0 0 296.19 296.19" fill="#fdfdfd"/><path d="M 296.19 253.88 A 42.31 42.31 0 0 1  338.5 296.19 L 296.19 253.88 A 42.31 42.31 0 0 0 338.5 296.19" fill="#fefefe"/><path d="M 0 296.19 A 42.31 42.31 0 0 1  42.31 338.5 L 0 296.19 A 42.31 42.31 0 0 0 42.31 338.5" fill="#fcfcfc"/><rect x="42.3125" y="296.1875" width="42.3125" height="42.3125" fill="#ffffff"/><path d="M 63.47 317.34 A 21.16 21.16 0 0 1  84.63 338.5 L 63.47 317.34 A 21.16 21.16 0 0 0 84.63 338.5" fill="#fdfdfd"/><path d="M 84.63 296.19 A 42.31 42.31 0 0 1  126.94 338.5 L 84.63 296.19 A 42.31 42.31 0 0 0 126.94 338.5" fill="#fcfcfc"/><rect x="126.9375" y="296.1875" width="42.3125" height="42.3125" fill="#ffffff"/><path d="M 148.09 338.5 A 21.16 21.16 0 0 1  169.25 317.34 L 148.09 338.5 A 21.16 21.16 0 0 0 169.25 317.34" fill="#efe9e1"/><path d="M 211.56 338.5 A 42.31 42.31 0 0 1  253.87 296.19 L 211.56 338.5 A 42.31 42.31 0 0 0 253.87 296.19" fill="#fcfcfc"/><rect x="338.5" y="296.1875" width="42.3125" height="42.3125" fill="#ffffff"/><path d="M 338.5 296.19 A 21.16 21.16 0 0 1  359.66 317.35 L 338.5 296.19 A 21.16 21.16 0 0 0 359.66 317.35" fill="#f8f5f1"/><path d="M 338.5 338.5 A 21.16 21.16 0 0 1  359.66 317.34 L 338.5 338.5 A 21.16 21.16 0 0 0 359.66 317.34" fill="#eae2d8"/><rect x="380.8125" y="296.1875" width="42.3125" height="42.3125" fill="#ffffff"/><path d="M 401.97 317.35 A 21.16 21.16 0 0 1  423.13000000000005 296.19 L 401.97 317.35 A 21.16 21.16 0 0 0 423.13000000000005 296.19" fill="#fdfdfd"/><path d="M 380.81 338.5 A 21.16 21.16 0 0 1  401.97 317.34 L 380.81 338.5 A 21.16 21.16 0 0 0 401.97 317.34" fill="#fefefe"/><path d="M 0 338.5 A 42.31 42.31 0 0 1  42.31 380.81 L 0 338.5 A 42.31 42.31 0 0 0 42.31 380.81" fill="#ffffff"/><rect x="169.25" y="338.5" width="42.3125" height="42.3125" fill="#ffffff"/><path d="M 190.41 359.66 A 21.16 21.16 0 0 1  211.57 338.5 L 190.41 359.66 A 21.16 21.16 0 0 0 211.57 338.5" fill="#fdfdfd"/><path d="M 253.88 338.5 A 42.31 42.31 0 0 1  296.19 380.81 L 253.88 338.5 A 42.31 42.31 0 0 0 296.19 380.81" fill="#fefefe"/><path d="M 0 380.81 A 42.31 42.31 0 0 1  42.31 423.12 L 0 380.81 A 42.31 42.31 0 0 0 42.31 423.12" fill="#e3d9cb"/><rect x="42.3125" y="380.8125" width="42.3125" height="42.3125" fill="#ffffff"/><path d="M 42.31 380.81 A 21.16 21.16 0 0 1  63.47 401.97 L 42.31 380.81 A 21.16 21.16 0 0 0 63.47 401.97" fill="#e9e1d6"/><path d="M 63.47 401.97 A 21.16 21.16 0 0 1  84.63 380.81 L 63.47 401.97 A 21.16 21.16 0 0 0 84.63 380.81" fill="#fefefe"/><path d="M 42.31 423.13000000000005 A 21.16 21.16 0 0 1  63.47 401.97 L 42.31 423.13000000000005 A 21.16 21.16 0 0 0 63.47 401.97" fill="#fdfdfd"/><path d="M 84.63 380.81 A 42.31 42.31 0 0 1  126.94 423.12 L 84.63 380.81 A 42.31 42.31 0 0 0 126.94 423.12" fill="#f8f6f2"/><path d="M 126.94 423.12 A 42.31 42.31 0 0 1  169.25 380.81 L 126.94 423.12 A 42.31 42.31 0 0 0 169.25 380.81" fill="#fcfcfc"/><path d="M 169.25 423.12 A 42.31 42.31 0 0 1  211.56 380.81 L 169.25 423.12 A 42.31 42.31 0 0 0 211.56 380.81" fill="#f5f2ed"/><rect x="211.5625" y="380.8125" width="42.3125" height="42.3125" fill="#ffffff"/><path d="M 211.56 380.81 A 21.16 21.16 0 0 1  232.72 401.97 L 211.56 380.81 A 21.16 21.16 0 0 0 232.72 401.97" fill="#f2ede6"/><path d="M 232.72 380.81 A 21.16 21.16 0 0 1  253.88 401.97 L 232.72 380.81 A 21.16 21.16 0 0 0 253.88 401.97" fill="#dfd3c3"/><path d="M 253.88 423.12 A 42.31 42.31 0 0 1  296.19 380.81 L 253.88 423.12 A 42.31 42.31 0 0 0 296.19 380.81" fill="#ffffff"/><rect x="296.1875" y="380.8125" width="42.3125" height="42.3125" fill="#ffffff"/><path d="M 296.19 401.97 A 21.16 21.16 0 0 1  317.35 380.81 L 296.19 401.97 A 21.16 21.16 0 0 0 317.35 380.81" fill="#f5f1ec"/><path d="M 296.19 423.13000000000005 A 21.16 21.16 0 0 1  317.35 401.97 L 296.19 423.13000000000005 A 21.16 21.16 0 0 0 317.35 401.97" fill="#f1ece5"/><path d="M 317.34 423.13000000000005 A 21.16 21.16 0 0 1  338.5 401.97 L 317.34 423.13000000000005 A 21.16 21.16 0 0 0 338.5 401.97" fill="#efeae2"/><path d="M 338.5 423.12 A 42.31 42.31 0 0 1  380.81 380.81 L 338.5 423.12 A 42.31 42.31 0 0 0 380.81 380.81" fill="#e7ded2"/><path d="M 380.81 423.12 A 42.31 42.31 0 0 1  423.12 380.81 L 380.81 423.12 A 42.31 42.31 0 0 0 423.12 380.81" fill="#fefefe"/><rect x="0" y="423.125" width="42.3125" height="42.3125" fill="#ffffff"/><path d="M 0 423.13 A 21.16 21.16 0 0 1  21.16 444.29 L 0 423.13 A 21.16 21.16 0 0 0 21.16 444.29" fill="#fefdfd"/><path d="M 21.16 444.29 A 21.16 21.16 0 0 1  42.32 423.13 L 21.16 444.29 A 21.16 21.16 0 0 0 42.32 423.13" fill="#fefefe"/><path d="M 0 444.28 A 21.16 21.16 0 0 1  21.16 465.44 L 0 444.28 A 21.16 21.16 0 0 0 21.16 465.44" fill="#fefefe"/><path d="M 84.63 465.44 A 42.31 42.31 0 0 1  126.94 423.13 L 84.63 465.44 A 42.31 42.31 0 0 0 126.94 423.13" fill="#e7ded2"/><rect x="126.9375" y="423.125" width="42.3125" height="42.3125" fill="#ffffff"/><path d="M 126.94 444.29 A 21.16 21.16 0 0 1  148.1 423.13 L 126.94 444.29 A 21.16 21.16 0 0 0 148.1 423.13" fill="#e8e0d4"/><path d="M 126.94 444.28 A 21.16 21.16 0 0 1  148.1 465.44 L 126.94 444.28 A 21.16 21.16 0 0 0 148.1 465.44" fill="#e5dbcf"/><path d="M 148.09 444.28 A 21.16 21.16 0 0 1  169.25 465.44 L 148.09 444.28 A 21.16 21.16 0 0 0 169.25 465.44" fill="#fbfaf8"/><rect x="169.25" y="423.125" width="42.3125" height="42.3125" fill="#ffffff"/><path d="M 169.25 444.29 A 21.16 21.16 0 0 1  190.41 423.13 L 169.25 444.29 A 21.16 21.16 0 0 0 190.41 423.13" fill="#fefefe"/><path d="M 211.56 465.44 A 42.31 42.31 0 0 1  253.87 423.13 L 211.56 465.44 A 42.31 42.31 0 0 0 253.87 423.13" fill="#fcfcfc"/><rect x="253.875" y="423.125" width="42.3125" height="42.3125" fill="#ffffff"/><path d="M 253.88 423.13 A 21.16 21.16 0 0 1  275.04 444.29 L 253.88 423.13 A 21.16 21.16 0 0 0 275.04 444.29" fill="#e4dacc"/><path d="M 275.03 423.13 A 21.16 21.16 0 0 1  296.19 444.29 L 275.03 423.13 A 21.16 21.16 0 0 0 296.19 444.29" fill="#fcfcfc"/><path d="M 253.88 465.44 A 21.16 21.16 0 0 1  275.04 444.28 L 253.88 465.44 A 21.16 21.16 0 0 0 275.04 444.28" fill="#fefefe"/><path d="M 275.03 444.28 A 21.16 21.16 0 0 1  296.19 465.44 L 275.03 444.28 A 21.16 21.16 0 0 0 296.19 465.44" fill="#eee7df"/><path d="M 296.19 423.13 A 42.31 42.31 0 0 1  338.5 465.44 L 296.19 423.13 A 42.31 42.31 0 0 0 338.5 465.44" fill="#e9e1d6"/><path d="M 338.5 423.13 A 42.31 42.31 0 0 1  380.81 465.44 L 338.5 423.13 A 42.31 42.31 0 0 0 380.81 465.44" fill="#e8dfd4"/><rect x="84.625" y="465.4375" width="42.3125" height="42.3125" fill="#ffffff"/><path d="M 84.63 486.6 A 21.16 21.16 0 0 1  105.78999999999999 465.44 L 84.63 486.6 A 21.16 21.16 0 0 0 105.78999999999999 465.44" fill="#e8e0d4"/><path d="M 105.78 486.6 A 21.16 21.16 0 0 1  126.94 465.44 L 105.78 486.6 A 21.16 21.16 0 0 0 126.94 465.44" fill="#fcfcfc"/><path d="M 84.63 507.75 A 21.16 21.16 0 0 1  105.78999999999999 486.59 L 84.63 507.75 A 21.16 21.16 0 0 0 105.78999999999999 486.59" fill="#fdfcfb"/><rect x="126.9375" y="465.4375" width="42.3125" height="42.3125" fill="#ffffff"/><path d="M 126.94 465.44 A 21.16 21.16 0 0 1  148.1 486.6 L 126.94 465.44 A 21.16 21.16 0 0 0 148.1 486.6" fill="#fefefe"/><path d="M 148.09 465.44 A 21.16 21.16 0 0 1  169.25 486.6 L 148.09 465.44 A 21.16 21.16 0 0 0 169.25 486.6" fill="#faf8f6"/><path d="M 126.94 486.59 A 21.16 21.16 0 0 1  148.1 507.75 L 126.94 486.59 A 21.16 21.16 0 0 0 148.1 507.75" fill="#fefefe"/><path d="M 148.09 486.59 A 21.16 21.16 0 0 1  169.25 507.75 L 148.09 486.59 A 21.16 21.16 0 0 0 169.25 507.75" fill="#fdfdfd"/><rect x="169.25" y="465.4375" width="42.3125" height="42.3125" fill="#ffffff"/><path d="M 169.25 486.6 A 21.16 21.16 0 0 1  190.41 465.44 L 169.25 486.6 A 21.16 21.16 0 0 0 190.41 465.44" fill="#e0d4c4"/><path d="M 190.41 465.44 A 21.16 21.16 0 0 1  211.57 486.6 L 190.41 465.44 A 21.16 21.16 0 0 0 211.57 486.6" fill="#e5dbce"/><path d="M 169.25 507.75 A 21.16 21.16 0 0 1  190.41 486.59 L 169.25 507.75 A 21.16 21.16 0 0 0 190.41 486.59" fill="#fefefe"/><path d="M 190.41 486.59 A 21.16 21.16 0 0 1  211.57 507.75 L 190.41 486.59 A 21.16 21.16 0 0 0 211.57 507.75" fill="#e3d8ca"/><rect x="211.5625" y="465.4375" width="42.3125" height="42.3125" fill="#ffffff"/><path d="M 211.56 486.6 A 21.16 21.16 0 0 1  232.72 465.44 L 211.56 486.6 A 21.16 21.16 0 0 0 232.72 465.44" fill="#ffffff"/><path d="M 232.72 465.44 A 21.16 21.16 0 0 1  253.88 486.6 L 232.72 465.44 A 21.16 21.16 0 0 0 253.88 486.6" fill="#f6f3ef"/><path d="M 232.72 486.59 A 21.16 21.16 0 0 1  253.88 507.75 L 232.72 486.59 A 21.16 21.16 0 0 0 253.88 507.75" fill="#fdfdfd"/><rect x="253.875" y="465.4375" width="42.3125" height="42.3125" fill="#ffffff"/><path d="M 253.88 486.6 A 21.16 21.16 0 0 1  275.04 465.44 L 253.88 486.6 A 21.16 21.16 0 0 0 275.04 465.44" fill="#ffffff"/><path d="M 275.03 486.6 A 21.16 21.16 0 0 1  296.19 465.44 L 275.03 486.6 A 21.16 21.16 0 0 0 296.19 465.44" fill="#ffffff"/><path d="M 253.88 486.59 A 21.16 21.16 0 0 1  275.04 507.75 L 253.88 486.59 A 21.16 21.16 0 0 0 275.04 507.75" fill="#fefefe"/><path d="M 275.03 486.59 A 21.16 21.16 0 0 1  296.19 507.75 L 275.03 486.59 A 21.16 21.16 0 0 0 296.19 507.75" fill="#e1d6c7"/><rect x="296.1875" y="465.4375" width="42.3125" height="42.3125" fill="#ffffff"/><path d="M 296.19 465.44 A 21.16 21.16 0 0 1  317.35 486.6 L 296.19 465.44 A 21.16 21.16 0 0 0 317.35 486.6" fill="#fefefe"/><path d="M 317.34 486.6 A 21.16 21.16 0 0 1  338.5 465.44 L 317.34 486.6 A 21.16 21.16 0 0 0 338.5 465.44" fill="#ffffff"/><path d="M 296.19 507.75 A 21.16 21.16 0 0 1  317.35 486.59 L 296.19 507.75 A 21.16 21.16 0 0 0 317.35 486.59" fill="#fdfdfd"/><path d="M 317.34 507.75 A 21.16 21.16 0 0 1  338.5 486.59 L 317.34 507.75 A 21.16 21.16 0 0 0 338.5 486.59" fill="#fcfbfa"/><rect x="338.5" y="465.4375" width="42.3125" height="42.3125" fill="#ffffff"/><path d="M 359.66 486.6 A 21.16 21.16 0 0 1  380.82000000000005 465.44 L 359.66 486.6 A 21.16 21.16 0 0 0 380.82000000000005 465.44" fill="#e4d9cc"/><path d="M 338.5 486.59 A 21.16 21.16 0 0 1  359.66 507.75 L 338.5 486.59 A 21.16 21.16 0 0 0 359.66 507.75" fill="#fefefd"/><path d="M 359.66 486.59 A 21.16 21.16 0 0 1  380.82000000000005 507.75 L 359.66 486.59 A 21.16 21.16 0 0 0 380.82000000000005 507.75" fill="#fefefe"/><path d="M 380.81 465.44 A 42.31 42.31 0 0 1  423.12 507.75 L 380.81 465.44 A 42.31 42.31 0 0 0 423.12 507.75" fill="#fefefe"/><path d="M 0 550.06 A 42.31 42.31 0 0 1  42.31 507.75 L 0 550.06 A 42.31 42.31 0 0 0 42.31 507.75" fill="#fefdfd"/><path d="M 42.31 550.06 A 42.31 42.31 0 0 1  84.62 507.75 L 42.31 550.06 A 42.31 42.31 0 0 0 84.62 507.75" fill="#f6f3ee"/><path d="M 84.63 550.06 A 42.31 42.31 0 0 1  126.94 507.75 L 84.63 550.06 A 42.31 42.31 0 0 0 126.94 507.75" fill="#e6dcd0"/><path d="M 126.94 550.06 A 42.31 42.31 0 0 1  169.25 507.75 L 126.94 550.06 A 42.31 42.31 0 0 0 169.25 507.75" fill="#e6ddd0"/><path d="M 211.56 507.75 A 42.31 42.31 0 0 1  253.87 550.06 L 211.56 507.75 A 42.31 42.31 0 0 0 253.87 550.06" fill="#e7ddd1"/><rect x="253.875" y="507.75" width="42.3125" height="42.3125" fill="#ffffff"/><path d="M 253.88 528.91 A 21.16 21.16 0 0 1  275.04 507.75 L 253.88 528.91 A 21.16 21.16 0 0 0 275.04 507.75" fill="#f8f6f2"/><path d="M 275.03 528.91 A 21.16 21.16 0 0 1  296.19 507.75 L 275.03 528.91 A 21.16 21.16 0 0 0 296.19 507.75" fill="#fdfdfd"/><path d="M 253.88 550.0699999999999 A 21.16 21.16 0 0 1  275.04 528.91 L 253.88 550.0699999999999 A 21.16 21.16 0 0 0 275.04 528.91" fill="#fcfaf8"/><path d="M 275.03 550.0699999999999 A 21.16 21.16 0 0 1  296.19 528.91 L 275.03 550.0699999999999 A 21.16 21.16 0 0 0 296.19 528.91" fill="#fefefe"/><rect x="296.1875" y="507.75" width="42.3125" height="42.3125" fill="#ffffff"/><path d="M 296.19 528.91 A 21.16 21.16 0 0 1  317.35 507.75 L 296.19 528.91 A 21.16 21.16 0 0 0 317.35 507.75" fill="#fefefe"/><path d="M 317.34 528.91 A 21.16 21.16 0 0 1  338.5 507.75 L 317.34 528.91 A 21.16 21.16 0 0 0 338.5 507.75" fill="#efe9e1"/><path d="M 317.34 528.91 A 21.16 21.16 0 0 1  338.5 550.0699999999999 L 317.34 528.91 A 21.16 21.16 0 0 0 338.5 550.0699999999999" fill="#ffffff"/><path d="M 338.5 507.75 A 42.31 42.31 0 0 1  380.81 550.06 L 338.5 507.75 A 42.31 42.31 0 0 0 380.81 550.06" fill="#f5f1ec"/><rect x="380.8125" y="507.75" width="42.3125" height="42.3125" fill="#ffffff"/><path d="M 380.81 528.91 A 21.16 21.16 0 0 1  401.97 507.75 L 380.81 528.91 A 21.16 21.16 0 0 0 401.97 507.75" fill="#ede6dc"/><path d="M 401.97 528.91 A 21.16 21.16 0 0 1  423.13000000000005 507.75 L 401.97 528.91 A 21.16 21.16 0 0 0 423.13000000000005 507.75" fill="#fdfdfd"/><path d="M 380.81 550.0699999999999 A 21.16 21.16 0 0 1  401.97 528.91 L 380.81 550.0699999999999 A 21.16 21.16 0 0 0 401.97 528.91" fill="#f4f0ea"/><path d="M 401.97 528.91 A 21.16 21.16 0 0 1  423.13000000000005 550.0699999999999 L 401.97 528.91 A 21.16 21.16 0 0 0 423.13000000000005 550.0699999999999" fill="#fcfbfa"/><rect x="0" y="550.0625" width="42.3125" height="42.3125" fill="#ffffff"/><path d="M 0 571.2199999999999 A 21.16 21.16 0 0 1  21.16 550.06 L 0 571.2199999999999 A 21.16 21.16 0 0 0 21.16 550.06" fill="#fefdfc"/><path d="M 21.16 550.06 A 21.16 21.16 0 0 1  42.32 571.2199999999999 L 21.16 550.06 A 21.16 21.16 0 0 0 42.32 571.2199999999999" fill="#ede7de"/><path d="M 0 571.22 A 21.16 21.16 0 0 1  21.16 592.38 L 0 571.22 A 21.16 21.16 0 0 0 21.16 592.38" fill="#e3d8ca"/><path d="M 21.16 571.22 A 21.16 21.16 0 0 1  42.32 592.38 L 21.16 571.22 A 21.16 21.16 0 0 0 42.32 592.38" fill="#fcfcfc"/><path d="M 42.31 550.06 A 42.31 42.31 0 0 1  84.62 592.3699999999999 L 42.31 550.06 A 42.31 42.31 0 0 0 84.62 592.3699999999999" fill="#e8e0d5"/><path d="M 84.63 592.3699999999999 A 42.31 42.31 0 0 1  126.94 550.06 L 84.63 592.3699999999999 A 42.31 42.31 0 0 0 126.94 550.06" fill="#ffffff"/><path d="M 126.94 592.3699999999999 A 42.31 42.31 0 0 1  169.25 550.06 L 126.94 592.3699999999999 A 42.31 42.31 0 0 0 169.25 550.06" fill="#fcfcfc"/><path d="M 169.25 550.06 A 42.31 42.31 0 0 1  211.56 592.3699999999999 L 169.25 550.06 A 42.31 42.31 0 0 0 211.56 592.3699999999999" fill="#fefdfd"/><path d="M 211.56 550.06 A 42.31 42.31 0 0 1  253.87 592.3699999999999 L 211.56 550.06 A 42.31 42.31 0 0 0 253.87 592.3699999999999" fill="#fefefe"/><path d="M 253.88 550.06 A 42.31 42.31 0 0 1  296.19 592.3699999999999 L 253.88 550.06 A 42.31 42.31 0 0 0 296.19 592.3699999999999" fill="#f8f5f2"/><path d="M 296.19 592.3699999999999 A 42.31 42.31 0 0 1  338.5 550.06 L 296.19 592.3699999999999 A 42.31 42.31 0 0 0 338.5 550.06" fill="#e8e0d4"/><path d="M 338.5 592.3699999999999 A 42.31 42.31 0 0 1  380.81 550.06 L 338.5 592.3699999999999 A 42.31 42.31 0 0 0 380.81 550.06" fill="#fcfcfc"/><path d="M 380.81 550.06 A 42.31 42.31 0 0 1  423.12 592.3699999999999 L 380.81 550.06 A 42.31 42.31 0 0 0 423.12 592.3699999999999" fill="#f7f4f0"/><path d="M 0 634.69 A 42.31 42.31 0 0 1  42.31 592.38 L 0 634.69 A 42.31 42.31 0 0 0 42.31 592.38" fill="#fbf9f7"/><rect x="42.3125" y="592.375" width="42.3125" height="42.3125" fill="#ffffff"/><path d="M 42.31 613.54 A 21.16 21.16 0 0 1  63.47 592.38 L 42.31 613.54 A 21.16 21.16 0 0 0 63.47 592.38" fill="#fcfcfc"/><path d="M 63.47 613.54 A 21.16 21.16 0 0 1  84.63 592.38 L 63.47 613.54 A 21.16 21.16 0 0 0 84.63 592.38" fill="#e3d9cb"/><path d="M 42.31 634.6899999999999 A 21.16 21.16 0 0 1  63.47 613.53 L 42.31 634.6899999999999 A 21.16 21.16 0 0 0 63.47 613.53" fill="#fdfdfd"/><path d="M 63.47 613.53 A 21.16 21.16 0 0 1  84.63 634.6899999999999 L 63.47 613.53 A 21.16 21.16 0 0 0 84.63 634.6899999999999" fill="#fdfdfd"/><path d="M 84.63 634.69 A 42.31 42.31 0 0 1  126.94 592.38 L 84.63 634.69 A 42.31 42.31 0 0 0 126.94 592.38" fill="#e2d8c9"/><path d="M 126.94 592.38 A 42.31 42.31 0 0 1  169.25 634.69 L 126.94 592.38 A 42.31 42.31 0 0 0 169.25 634.69" fill="#f4efe9"/><path d="M 169.25 634.69 A 42.31 42.31 0 0 1  211.56 592.38 L 169.25 634.69 A 42.31 42.31 0 0 0 211.56 592.38" fill="#e7ded2"/><rect x="211.5625" y="592.375" width="42.3125" height="42.3125" fill="#ffffff"/><path d="M 211.56 592.38 A 21.16 21.16 0 0 1  232.72 613.54 L 211.56 592.38 A 21.16 21.16 0 0 0 232.72 613.54" fill="#fefefe"/><path d="M 232.72 592.38 A 21.16 21.16 0 0 1  253.88 613.54 L 232.72 592.38 A 21.16 21.16 0 0 0 253.88 613.54" fill="#fffefe"/><path d="M 211.56 613.53 A 21.16 21.16 0 0 1  232.72 634.6899999999999 L 211.56 613.53 A 21.16 21.16 0 0 0 232.72 634.6899999999999" fill="#fcfcfc"/><path d="M 232.72 634.6899999999999 A 21.16 21.16 0 0 1  253.88 613.53 L 232.72 634.6899999999999 A 21.16 21.16 0 0 0 253.88 613.53" fill="#fefefe"/><rect x="253.875" y="592.375" width="42.3125" height="42.3125" fill="#ffffff"/><path d="M 253.88 613.54 A 21.16 21.16 0 0 1  275.04 592.38 L 253.88 613.54 A 21.16 21.16 0 0 0 275.04 592.38" fill="#fcfcfc"/><path d="M 275.03 613.54 A 21.16 21.16 0 0 1  296.19 592.38 L 275.03 613.54 A 21.16 21.16 0 0 0 296.19 592.38" fill="#fdfdfd"/><path d="M 253.88 613.53 A 21.16 21.16 0 0 1  275.04 634.6899999999999 L 253.88 613.53 A 21.16 21.16 0 0 0 275.04 634.6899999999999" fill="#fcfcfc"/><path d="M 275.03 634.6899999999999 A 21.16 21.16 0 0 1  296.19 613.53 L 275.03 634.6899999999999 A 21.16 21.16 0 0 0 296.19 613.53" fill="#e1d6c7"/><rect x="296.1875" y="592.375" width="42.3125" height="42.3125" fill="#ffffff"/><path d="M 296.19 592.38 A 21.16 21.16 0 0 1  317.35 613.54 L 296.19 592.38 A 21.16 21.16 0 0 0 317.35 613.54" fill="#fdfdfd"/><path d="M 317.34 613.54 A 21.16 21.16 0 0 1  338.5 592.38 L 317.34 613.54 A 21.16 21.16 0 0 0 338.5 592.38" fill="#f0eae2"/><path d="M 296.19 634.6899999999999 A 21.16 21.16 0 0 1  317.35 613.53 L 296.19 634.6899999999999 A 21.16 21.16 0 0 0 317.35 613.53" fill="#eae2d7"/><path d="M 317.34 634.6899999999999 A 21.16 21.16 0 0 1  338.5 613.53 L 317.34 634.6899999999999 A 21.16 21.16 0 0 0 338.5 613.53" fill="#f9f6f3"/><rect x="338.5" y="592.375" width="42.3125" height="42.3125" fill="#ffffff"/><path d="M 338.5 613.54 A 21.16 21.16 0 0 1  359.66 592.38 L 338.5 613.54 A 21.16 21.16 0 0 0 359.66 592.38" fill="#fefefe"/><path d="M 359.66 613.54 A 21.16 21.16 0 0 1  380.82000000000005 592.38 L 359.66 613.54 A 21.16 21.16 0 0 0 380.82000000000005 592.38" fill="#fefefe"/><path d="M 338.5 613.53 A 21.16 21.16 0 0 1  359.66 634.6899999999999 L 338.5 613.53 A 21.16 21.16 0 0 0 359.66 634.6899999999999" fill="#fefefe"/><path d="M 359.66 613.53 A 21.16 21.16 0 0 1  380.82000000000005 634.6899999999999 L 359.66 613.53 A 21.16 21.16 0 0 0 380.82000000000005 634.6899999999999" fill="#eee7df"/><rect x="380.8125" y="592.375" width="42.3125" height="42.3125" fill="#ffffff"/><path d="M 380.81 613.54 A 21.16 21.16 0 0 1  401.97 592.38 L 380.81 613.54 A 21.16 21.16 0 0 0 401.97 592.38" fill="#f4f0eb"/><path d="M 401.97 613.54 A 21.16 21.16 0 0 1  423.13000000000005 592.38 L 401.97 613.54 A 21.16 21.16 0 0 0 423.13000000000005 592.38" fill="#f4f0eb"/><path d="M 380.81 634.6899999999999 A 21.16 21.16 0 0 1  401.97 613.53 L 380.81 634.6899999999999 A 21.16 21.16 0 0 0 401.97 613.53" fill="#eae2d7"/><path d="M 401.97 634.6899999999999 A 21.16 21.16 0 0 1  423.13000000000005 613.53 L 401.97 634.6899999999999 A 21.16 21.16 0 0 0 423.13000000000005 613.53" fill="#f2ede7"/><rect x="0" y="634.6875" width="42.3125" height="42.3125" fill="#ffffff"/><path d="M 0 634.69 A 21.16 21.16 0 0 1  21.16 655.85 L 0 634.69 A 21.16 21.16 0 0 0 21.16 655.85" fill="#fdfdfd"/><path d="M 21.16 655.85 A 21.16 21.16 0 0 1  42.32 634.69 L 21.16 655.85 A 21.16 21.16 0 0 0 42.32 634.69" fill="#ffffff"/><path d="M 0 677 A 21.16 21.16 0 0 1  21.16 655.84 L 0 677 A 21.16 21.16 0 0 0 21.16 655.84" fill="#ece6dc"/><path d="M 21.16 655.84 A 21.16 21.16 0 0 1  42.32 677 L 21.16 655.84 A 21.16 21.16 0 0 0 42.32 677" fill="#fdfdfd"/><rect x="42.3125" y="634.6875" width="42.3125" height="42.3125" fill="#ffffff"/><path d="M 42.31 634.69 A 21.16 21.16 0 0 1  63.47 655.85 L 42.31 634.69 A 21.16 21.16 0 0 0 63.47 655.85" fill="#eae2d7"/><path d="M 63.47 634.69 A 21.16 21.16 0 0 1  84.63 655.85 L 63.47 634.69 A 21.16 21.16 0 0 0 84.63 655.85" fill="#e9e1d6"/><path d="M 42.31 677 A 21.16 21.16 0 0 1  63.47 655.84 L 42.31 677 A 21.16 21.16 0 0 0 63.47 655.84" fill="#e1d6c7"/><path d="M 63.47 655.84 A 21.16 21.16 0 0 1  84.63 677 L 63.47 655.84 A 21.16 21.16 0 0 0 84.63 677" fill="#fcfcfc"/><rect x="84.625" y="634.6875" width="42.3125" height="42.3125" fill="#ffffff"/><path d="M 84.63 634.69 A 21.16 21.16 0 0 1  105.78999999999999 655.85 L 84.63 634.69 A 21.16 21.16 0 0 0 105.78999999999999 655.85" fill="#f9f7f4"/><path d="M 105.78 655.85 A 21.16 21.16 0 0 1  126.94 634.69 L 105.78 655.85 A 21.16 21.16 0 0 0 126.94 634.69" fill="#f7f4f1"/><path d="M 84.63 655.84 A 21.16 21.16 0 0 1  105.78999999999999 677 L 84.63 655.84 A 21.16 21.16 0 0 0 105.78999999999999 677" fill="#e6ddd1"/><path d="M 105.78 655.84 A 21.16 21.16 0 0 1  126.94 677 L 105.78 655.84 A 21.16 21.16 0 0 0 126.94 677" fill="#e2d7c8"/><rect x="126.9375" y="634.6875" width="42.3125" height="42.3125" fill="#ffffff"/><path d="M 126.94 634.69 A 21.16 21.16 0 0 1  148.1 655.85 L 126.94 634.69 A 21.16 21.16 0 0 0 148.1 655.85" fill="#fdfdfd"/><path d="M 148.09 634.69 A 21.16 21.16 0 0 1  169.25 655.85 L 148.09 634.69 A 21.16 21.16 0 0 0 169.25 655.85" fill="#f3eee8"/><path d="M 126.94 677 A 21.16 21.16 0 0 1  148.1 655.84 L 126.94 677 A 21.16 21.16 0 0 0 148.1 655.84" fill="#fbf9f7"/><path d="M 148.09 655.84 A 21.16 21.16 0 0 1  169.25 677 L 148.09 655.84 A 21.16 21.16 0 0 0 169.25 677" fill="#fefefe"/><rect x="169.25" y="634.6875" width="42.3125" height="42.3125" fill="#ffffff"/><path d="M 169.25 655.85 A 21.16 21.16 0 0 1  190.41 634.69 L 169.25 655.85 A 21.16 21.16 0 0 0 190.41 634.69" fill="#e1d6c7"/><path d="M 190.41 655.85 A 21.16 21.16 0 0 1  211.57 634.69 L 190.41 655.85 A 21.16 21.16 0 0 0 211.57 634.69" fill="#fefefe"/><path d="M 169.25 655.84 A 21.16 21.16 0 0 1  190.41 677 L 169.25 655.84 A 21.16 21.16 0 0 0 190.41 677" fill="#f8f5f2"/><path d="M 190.41 655.84 A 21.16 21.16 0 0 1  211.57 677 L 190.41 655.84 A 21.16 21.16 0 0 0 211.57 677" fill="#fefefe"/><rect x="211.5625" y="634.6875" width="42.3125" height="42.3125" fill="#ffffff"/><path d="M 211.56 655.85 A 21.16 21.16 0 0 1  232.72 634.69 L 211.56 655.85 A 21.16 21.16 0 0 0 232.72 634.69" fill="#fefefe"/><path d="M 232.72 634.69 A 21.16 21.16 0 0 1  253.88 655.85 L 232.72 634.69 A 21.16 21.16 0 0 0 253.88 655.85" fill="#e4dacc"/><path d="M 211.56 655.84 A 21.16 21.16 0 0 1  232.72 677 L 211.56 655.84 A 21.16 21.16 0 0 0 232.72 677" fill="#fdfdfd"/><path d="M 232.72 677 A 21.16 21.16 0 0 1  253.88 655.84 L 232.72 677 A 21.16 21.16 0 0 0 253.88 655.84" fill="#efe9e1"/><path d="M 253.88 634.69 A 42.31 42.31 0 0 1  296.19 677 L 253.88 634.69 A 42.31 42.31 0 0 0 296.19 677" fill="#fefefe"/><path d="M 296.19 634.69 A 42.31 42.31 0 0 1  338.5 677 L 296.19 634.69 A 42.31 42.31 0 0 0 338.5 677" fill="#fcfcfc"/><path d="M 338.5 677 A 42.31 42.31 0 0 1  380.81 634.69 L 338.5 677 A 42.31 42.31 0 0 0 380.81 634.69" fill="#f2ede6"/><path d="M 380.81 634.69 A 42.31 42.31 0 0 1  423.12 677 L 380.81 634.69 A 42.31 42.31 0 0 0 423.12 677" fill="#fdfdfd"/></g></svg>