<?xml version="1.0" standalone="no"?><svg xmlns:xlink="http://www.w3.org/1999/xlink" xmlns="http://www.w3.org/2000/svg" viewBox="0 0 1000 1500.0177254679522" preserveAspectRatio="xMaxYMax slice"><g transform="scale(2.2156834940442427)"><rect x="0" y="0" width="451.33333333333337" height="677" fill="#ffffff"/><g transform="translate(0,0) scale(1.8805) rotate(0)"><path d="M13 0H20V7L7 20H0V13L13 0Z" fill="#fbf9f7"/></g><g transform="translate(37.61,0) scale(1.8805) rotate(0)"><path d="M13 0H20V7L7 20H0V13L13 0Z" fill="#fdfdfd"/></g><g transform="translate(75.22,0) scale(1.8805) rotate(0)"><path d="M13 0H20V7L7 20H0V13L13 0Z" fill="#ffffff"/></g><g transform="translate(112.83,0) scale(1.8805) rotate(0)"><path d="M13 0H20V7L7 20H0V13L13 0Z" fill="#ede7df"/></g><g transform="translate(150.44,0) scale(1.8805) rotate(0)"><path d="M13 0H20V7L7 20H0V13L13 0Z" fill="#d6c9b7"/></g><g transform="translate(188.06,0) scale(1.8805) rotate(0)"><path d="M13 0H20V7L7 20H0V13L13 0Z" fill="#dacebe"/></g><g transform="translate(225.67,0) scale(1.8805) rotate(0)"><path d="M13 0H20V7L7 20H0V13L13 0Z" fill="#f6f3ef"/></g><g transform="translate(263.28,0) scale(1.8805) rotate(0)"><path d="M13 0H20V7L7 20H0V13L13 0Z" fill="#fdfdfd"/></g><g transform="translate(300.89,0) scale(1.8805) rotate(0)"><path d="M13 0H20V7L7 20H0V13L13 0Z" fill="#ffffff"/></g><g transform="translate(338.5,0) scale(1.8805) rotate(0)"><path d="M13 0H20V7L7 20H0V13L13 0Z" fill="#fcfcfc"/></g><rect x="376.11111111111114" y="0" width="37.611111111111114" height="37.611111111111114" fill="#ffffff"/><g transform="translate(376.11,0) scale(0.9404999999999999) rotate(0)"><path d="M13 0H20V7L7 20H0V13L13 0Z" fill="#c5b298"/></g><g transform="translate(394.92,0) scale(0.9404999999999999) rotate(0)"><path d="M13 0H20V7L7 20H0V13L13 0Z" fill="#cdbca6"/></g><g transform="translate(376.11,18.81) scale(0.9404999999999999) rotate(0)"><path d="M13 0H20V7L7 20H0V13L13 0Z" fill="#fdfdfd"/></g><g transform="translate(394.92,18.81) scale(0.9404999999999999) rotate(0)"><path d="M13 0H20V7L7 20H0V13L13 0Z" fill="#e6ddd2"/></g><rect x="413.7222222222223" y="0" width="37.611111111111114" height="37.611111111111114" fill="#ffffff"/><g transform="translate(413.72,0) scale(0.9404999999999999) rotate(0)"><path d="M13 0H20V7L7 20H0V13L13 0Z" fill="#d6c9b7"/></g><g transform="translate(432.53,0) scale(0.9404999999999999) rotate(0)"><path d="M13 0H20V7L7 20H0V13L13 0Z" fill="#fcfcfc"/></g><g transform="translate(413.72,18.81) scale(0.9404999999999999) rotate(0)"><path d="M13 0H20V7L7 20H0V13L13 0Z" fill="#f7f4f0"/></g><g transform="translate(432.53,18.81) scale(0.9404999999999999) rotate(0)"><path d="M13 0H20V7L7 20H0V13L13 0Z" fill="#f1ede6"/></g><g transform="translate(0,37.61) scale(1.8805) rotate(0)"><path d="M13 0H20V7L7 20H0V13L13 0Z" fill="#dfd4c6"/></g><g transform="translate(37.61,37.61) scale(1.8805) rotate(0)"><path d="M13 0H20V7L7 20H0V13L13 0Z" fill="#cdbda7"/></g><g transform="translate(75.22,37.61) scale(1.8805) rotate(0)"><path d="M13 0H20V7L7 20H0V13L13 0Z" fill="#e6ded3"/></g><g transform="translate(112.83,37.61) scale(1.8805) rotate(0)"><path d="M13 0H20V7L7 20H0V13L13 0Z" fill="#fefefe"/></g><g transform="translate(150.44,37.61) scale(1.8805) rotate(0)"><path d="M13 0H20V7L7 20H0V13L13 0Z" fill="#fcfcfc"/></g><g transform="translate(188.06,37.61) scale(1.8805) rotate(0)"><path d="M13 0H20V7L7 20H0V13L13 0Z" fill="#efeae3"/></g><g transform="translate(225.67,37.61) scale(1.8805) rotate(0)"><path d="M13 0H20V7L7 20H0V13L13 0Z" fill="#ffffff"/></g><g transform="translate(263.28,37.61) scale(1.8805) rotate(0)"><path d="M13 0H20V7L7 20H0V13L13 0Z" fill="#fefefe"/></g><g transform="translate(300.89,37.61) scale(1.8805) rotate(0)"><path d="M13 0H20V7L7 20H0V13L13 0Z" fill="#d1c2ae"/></g><g transform="translate(338.5,37.61) scale(1.8805) rotate(0)"><path d="M13 0H20V7L7 20H0V13L13 0Z" fill="#cbbaa4"/></g><g transform="translate(376.11,37.61) scale(1.8805) rotate(0)"><path d="M13 0H20V7L7 20H0V13L13 0Z" fill="#fcfcfc"/></g><g transform="translate(413.72,37.61) scale(1.8805) rotate(0)"><path d="M13 0H20V7L7 20H0V13L13 0Z" fill="#d8ccbb"/></g><g transform="translate(0,75.22) scale(1.8805) rotate(0)"><path d="M13 0H20V7L7 20H0V13L13 0Z" fill="#fdfdfd"/></g><rect x="37.611111111111114" y="75.22222222222223" width="37.611111111111114" height="37.611111111111114" fill="#ffffff"/><g transform="translate(37.61,75.22) scale(0.9404999999999999) rotate(0)"><path d="M13 0H20V7L7 20H0V13L13 0Z" fill="#f4f0eb"/></g><g transform="translate(56.42,75.22) scale(0.9404999999999999) rotate(0)"><path d="M13 0H20V7L7 20H0V13L13 0Z" fill="#c4b197"/></g><g transform="translate(37.61,94.03) scale(0.9404999999999999) rotate(0)"><path d="M13 0H20V7L7 20H0V13L13 0Z" fill="#dfd4c6"/></g><g transform="translate(56.42,94.03) scale(0.9404999999999999) rotate(0)"><path d="M13 0H20V7L7 20H0V13L13 0Z" fill="#ffffff"/></g><g transform="translate(75.22,75.22) scale(1.8805) rotate(0)"><path d="M13 0H20V7L7 20H0V13L13 0Z" fill="#fefefe"/></g><rect x="112.83333333333334" y="75.22222222222223" width="37.611111111111114" height="37.611111111111114" fill="#ffffff"/><g transform="translate(112.83,75.22) scale(0.9404999999999999) rotate(0)"><path d="M13 0H20V7L7 20H0V13L13 0Z" fill="#fefefe"/></g><g transform="translate(131.64,75.22) scale(0.9404999999999999) rotate(0)"><path d="M13 0H20V7L7 20H0V13L13 0Z" fill="#fefefe"/></g><g transform="translate(112.83,94.03) scale(0.9404999999999999) rotate(0)"><path d="M13 0H20V7L7 20H0V13L13 0Z" fill="#fcfcfc"/></g><g transform="translate(131.64,94.03) scale(0.9404999999999999) rotate(0)"><path d="M13 0H20V7L7 20H0V13L13 0Z" fill="#fcfcfc"/></g><g transform="translate(150.44,75.22) scale(1.8805) rotate(0)"><path d="M13 0H20V7L7 20H0V13L13 0Z" fill="#c4b197"/></g><g transform="translate(188.06,75.22) scale(1.8805) rotate(0)"><path d="M13 0H20V7L7 20H0V13L13 0Z" fill="#fdfdfd"/></g><g transform="translate(225.67,75.22) scale(1.8805) rotate(0)"><path d="M13 0H20V7L7 20H0V13L13 0Z" fill="#fefefe"/></g><g transform="translate(263.28,75.22) scale(1.8805) rotate(0)"><path d="M13 0H20V7L7 20H0V13L13 0Z" fill="#fefefe"/></g><g transform="translate(300.89,75.22) scale(1.8805) rotate(0)"><path d="M13 0H20V7L7 20H0V13L13 0Z" fill="#fefefe"/></g><g transform="translate(338.5,75.22) scale(1.8805) rotate(0)"><path d="M13 0H20V7L7 20H0V13L13 0Z" fill="#cebda7"/></g><g transform="translate(376.11,75.22) scale(1.8805) rotate(0)"><path d="M13 0H20V7L7 20H0V13L13 0Z" fill="#ccbba4"/></g><g transform="translate(413.72,75.22) scale(1.8805) rotate(0)"><path d="M13 0H20V7L7 20H0V13L13 0Z" fill="#fdfdfd"/></g><rect x="0" y="112.83333333333334" width="37.611111111111114" height="37.611111111111114" fill="#ffffff"/><g transform="translate(0,112.83) scale(0.9404999999999999) rotate(0)"><path d="M13 0H20V7L7 20H0V13L13 0Z" fill="#ffffff"/></g><g transform="translate(18.81,112.83) scale(0.9404999999999999) rotate(0)"><path d="M13 0H20V7L7 20H0V13L13 0Z" fill="#cfbfaa"/></g><g transform="translate(0,131.64) scale(0.9404999999999999) rotate(0)"><path d="M13 0H20V7L7 20H0V13L13 0Z" fill="#fcfcfc"/></g><g transform="translate(18.81,131.64) scale(0.9404999999999999) rotate(0)"><path d="M13 0H20V7L7 20H0V13L13 0Z" fill="#ffffff"/></g><g transform="translate(37.61,112.83) scale(1.8805) rotate(0)"><path d="M13 0H20V7L7 20H0V13L13 0Z" fill="#fefefe"/></g><g transform="translate(75.22,112.83) scale(1.8805) rotate(0)"><path d="M13 0H20V7L7 20H0V13L13 0Z" fill="#ebe5dc"/></g><g transform="translate(112.83,112.83) scale(1.8805) rotate(0)"><path d="M13 0H20V7L7 20H0V13L13 0Z" fill="#ffffff"/></g><rect x="150.44444444444446" y="112.83333333333334" width="37.611111111111114" height="37.611111111111114" fill="#ffffff"/><g transform="translate(150.44,112.83) scale(0.9404999999999999) rotate(0)"><path d="M13 0H20V7L7 20H0V13L13 0Z" fill="#fdfdfd"/></g><g transform="translate(169.25,112.83) scale(0.9404999999999999) rotate(0)"><path d="M13 0H20V7L7 20H0V13L13 0Z" fill="#fdfdfd"/></g><g transform="translate(150.44,131.64) scale(0.9404999999999999) rotate(0)"><path d="M13 0H20V7L7 20H0V13L13 0Z" fill="#eee8e0"/></g><g transform="translate(169.25,131.64) scale(0.9404999999999999) rotate(0)"><path d="M13 0H20V7L7 20H0V13L13 0Z" fill="#fcfcfc"/></g><rect x="188.05555555555557" y="112.83333333333334" width="37.611111111111114" height="37.611111111111114" fill="#ffffff"/><g transform="translate(188.06,112.83) scale(0.9404999999999999) rotate(0)"><path d="M13 0H20V7L7 20H0V13L13 0Z" fill="#fdfdfd"/></g><g transform="translate(206.86,112.83) scale(0.9404999999999999) rotate(0)"><path d="M13 0H20V7L7 20H0V13L13 0Z" fill="#d3c5b2"/></g><g transform="translate(188.06,131.64) scale(0.9404999999999999) rotate(0)"><path d="M13 0H20V7L7 20H0V13L13 0Z" fill="#fdfdfd"/></g><g transform="translate(206.86,131.64) scale(0.9404999999999999) rotate(0)"><path d="M13 0H20V7L7 20H0V13L13 0Z" fill="#d9cdbc"/></g><g transform="translate(225.67,112.83) scale(1.8805) rotate(0)"><path d="M13 0H20V7L7 20H0V13L13 0Z" fill="#d4c6b3"/></g><g transform="translate(263.28,112.83) scale(1.8805) rotate(0)"><path d="M13 0H20V7L7 20H0V13L13 0Z" fill="#ffffff"/></g><rect x="300.8888888888889" y="112.83333333333334" width="37.611111111111114" height="37.611111111111114" fill="#ffffff"/><g transform="translate(300.89,112.83) scale(0.9404999999999999) rotate(0)"><path d="M13 0H20V7L7 20H0V13L13 0Z" fill="#ebe4db"/></g><g transform="translate(319.69,112.83) scale(0.9404999999999999) rotate(0)"><path d="M13 0H20V7L7 20H0V13L13 0Z" fill="#ffffff"/></g><g transform="translate(300.89,131.64) scale(0.9404999999999999) rotate(0)"><path d="M13 0H20V7L7 20H0V13L13 0Z" fill="#f0ebe5"/></g><g transform="translate(319.69,131.64) scale(0.9404999999999999) rotate(0)"><path d="M13 0H20V7L7 20H0V13L13 0Z" fill="#c5b198"/></g><rect x="338.5" y="112.83333333333334" width="37.611111111111114" height="37.611111111111114" fill="#ffffff"/><g transform="translate(338.5,112.83) scale(0.9404999999999999) rotate(0)"><path d="M13 0H20V7L7 20H0V13L13 0Z" fill="#f4f0eb"/></g><g transform="translate(357.31,112.83) scale(0.9404999999999999) rotate(0)"><path d="M13 0H20V7L7 20H0V13L13 0Z" fill="#fcfcfc"/></g><g transform="translate(338.5,131.64) scale(0.9404999999999999) rotate(0)"><path d="M13 0H20V7L7 20H0V13L13 0Z" fill="#e9e2d8"/></g><g transform="translate(357.31,131.64) scale(0.9404999999999999) rotate(0)"><path d="M13 0H20V7L7 20H0V13L13 0Z" fill="#e9e2d8"/></g><rect x="376.11111111111114" y="112.83333333333334" width="37.611111111111114" height="37.611111111111114" fill="#ffffff"/><g transform="translate(376.11,112.83) scale(0.9404999999999999) rotate(0)"><path d="M13 0H20V7L7 20H0V13L13 0Z" fill="#ece6de"/></g><g transform="translate(394.92,112.83) scale(0.9404999999999999) rotate(0)"><path d="M13 0H20V7L7 20H0V13L13 0Z" fill="#f0ebe4"/></g><g transform="translate(376.11,131.64) scale(0.9404999999999999) rotate(0)"><path d="M13 0H20V7L7 20H0V13L13 0Z" fill="#ffffff"/></g><g transform="translate(394.92,131.64) scale(0.9404999999999999) rotate(0)"><path d="M13 0H20V7L7 20H0V13L13 0Z" fill="#f8f5f2"/></g><g transform="translate(413.72,112.83) scale(1.8805) rotate(0)"><path d="M13 0H20V7L7 20H0V13L13 0Z" fill="#fefefe"/></g><g transform="translate(0,150.44) scale(1.8805) rotate(0)"><path d="M13 0H20V7L7 20H0V13L13 0Z" fill="#e6ded2"/></g><rect x="37.611111111111114" y="150.44444444444446" width="37.611111111111114" height="37.611111111111114" fill="#ffffff"/><g transform="translate(37.61,150.44) scale(0.9404999999999999) rotate(0)"><path d="M13 0H20V7L7 20H0V13L13 0Z" fill="#fefefe"/></g><g transform="translate(56.42,150.44) scale(0.9404999999999999) rotate(0)"><path d="M13 0H20V7L7 20H0V13L13 0Z" fill="#c5b399"/></g><g transform="translate(37.61,169.25) scale(0.9404999999999999) rotate(0)"><path d="M13 0H20V7L7 20H0V13L13 0Z" fill="#fdfdfd"/></g><g transform="translate(56.42,169.25) scale(0.9404999999999999) rotate(0)"><path d="M13 0H20V7L7 20H0V13L13 0Z" fill="#efeae3"/></g><g transform="translate(75.22,150.44) scale(1.8805) rotate(0)"><path d="M13 0H20V7L7 20H0V13L13 0Z" fill="#fdfdfd"/></g><rect x="112.83333333333334" y="150.44444444444446" width="37.611111111111114" height="37.611111111111114" fill="#ffffff"/><g transform="translate(112.83,150.44) scale(0.9404999999999999) rotate(0)"><path d="M13 0H20V7L7 20H0V13L13 0Z" fill="#fdfdfd"/></g><g transform="translate(131.64,150.44) scale(0.9404999999999999) rotate(0)"><path d="M13 0H20V7L7 20H0V13L13 0Z" fill="#f6f3ef"/></g><g transform="translate(112.83,169.25) scale(0.9404999999999999) rotate(0)"><path d="M13 0H20V7L7 20H0V13L13 0Z" fill="#c3af95"/></g><g transform="translate(131.64,169.25) scale(0.9404999999999999) rotate(0)"><path d="M13 0H20V7L7 20H0V13L13 0Z" fill="#fefefe"/></g><g transform="translate(150.44,150.44) scale(1.8805) rotate(0)"><path d="M13 0H20V7L7 20H0V13L13 0Z" fill="#c4b197"/></g><g transform="translate(188.06,150.44) scale(1.8805) rotate(0)"><path d="M13 0H20V7L7 20H0V13L13 0Z" fill="#fcfcfc"/></g><g transform="translate(225.67,150.44) scale(1.8805) rotate(0)"><path d="M13 0H20V7L7 20H0V13L13 0Z" fill="#fdfdfd"/></g><g transform="translate(263.28,150.44) scale(1.8805) rotate(0)"><path d="M13 0H20V7L7 20H0V13L13 0Z" fill="#fcfcfc"/></g><rect x="300.8888888888889" y="150.44444444444446" width="37.611111111111114" height="37.611111111111114" fill="#ffffff"/><g transform="translate(300.89,150.44) scale(0.9404999999999999) rotate(0)"><path d="M13 0H20V7L7 20H0V13L13 0Z" fill="#dacebe"/></g><g transform="translate(319.69,150.44) scale(0.9404999999999999) rotate(0)"><path d="M13 0H20V7L7 20H0V13L13 0Z" fill="#fdfdfd"/></g><g transform="translate(300.89,169.25) scale(0.9404999999999999) rotate(0)"><path d="M13 0H20V7L7 20H0V13L13 0Z" fill="#f8f6f3"/></g><g transform="translate(319.69,169.25) scale(0.9404999999999999) rotate(0)"><path d="M13 0H20V7L7 20H0V13L13 0Z" fill="#d5c7b4"/></g><rect x="338.5" y="150.44444444444446" width="37.611111111111114" height="37.611111111111114" fill="#ffffff"/><g transform="translate(338.5,150.44) scale(0.9404999999999999) rotate(0)"><path d="M13 0H20V7L7 20H0V13L13 0Z" fill="#fefefe"/></g><g transform="translate(357.31,150.44) scale(0.9404999999999999) rotate(0)"><path d="M13 0H20V7L7 20H0V13L13 0Z" fill="#e0d6c9"/></g><g transform="translate(338.5,169.25) scale(0.9404999999999999) rotate(0)"><path d="M13 0H20V7L7 20H0V13L13 0Z" fill="#ffffff"/></g><g transform="translate(357.31,169.25) scale(0.9404999999999999) rotate(0)"><path d="M13 0H20V7L7 20H0V13L13 0Z" fill="#ece5dd"/></g><g transform="translate(376.11,150.44) scale(1.8805) rotate(0)"><path d="M13 0H20V7L7 20H0V13L13 0Z" fill="#c3af94"/></g><g transform="translate(413.72,150.44) scale(1.8805) rotate(0)"><path d="M13 0H20V7L7 20H0V13L13 0Z" fill="#c3b095"/></g><g transform="translate(0,188.06) scale(1.8805) rotate(0)"><path d="M13 0H20V7L7 20H0V13L13 0Z" fill="#f3efea"/></g><g transform="translate(37.61,188.06) scale(1.8805) rotate(0)"><path d="M13 0H20V7L7 20H0V13L13 0Z" fill="#d7c9b7"/></g><g transform="translate(75.22,188.06) scale(1.8805) rotate(0)"><path d="M13 0H20V7L7 20H0V13L13 0Z" fill="#cebea8"/></g><g transform="translate(112.83,188.06) scale(1.8805) rotate(0)"><path d="M13 0H20V7L7 20H0V13L13 0Z" fill="#e8e1d6"/></g><rect x="150.44444444444446" y="188.05555555555557" width="37.611111111111114" height="37.611111111111114" fill="#ffffff"/><g transform="translate(150.44,188.06) scale(0.9404999999999999) rotate(0)"><path d="M13 0H20V7L7 20H0V13L13 0Z" fill="#fefefe"/></g><g transform="translate(169.25,188.06) scale(0.9404999999999999) rotate(0)"><path d="M13 0H20V7L7 20H0V13L13 0Z" fill="#d9ccbc"/></g><g transform="translate(150.44,206.86) scale(0.9404999999999999) rotate(0)"><path d="M13 0H20V7L7 20H0V13L13 0Z" fill="#f1ece6"/></g><g transform="translate(169.25,206.86) scale(0.9404999999999999) rotate(0)"><path d="M13 0H20V7L7 20H0V13L13 0Z" fill="#ffffff"/></g><g transform="translate(188.06,188.06) scale(1.8805) rotate(0)"><path d="M13 0H20V7L7 20H0V13L13 0Z" fill="#fdfdfd"/></g><g transform="translate(225.67,188.06) scale(1.8805) rotate(0)"><path d="M13 0H20V7L7 20H0V13L13 0Z" fill="#ede7e0"/></g><rect x="263.2777777777778" y="188.05555555555557" width="37.611111111111114" height="37.611111111111114" fill="#ffffff"/><g transform="translate(263.28,188.06) scale(0.9404999999999999) rotate(0)"><path d="M13 0H20V7L7 20H0V13L13 0Z" fill="#cbbaa3"/></g><g transform="translate(282.08,188.06) scale(0.9404999999999999) rotate(0)"><path d="M13 0H20V7L7 20H0V13L13 0Z" fill="#f4f0eb"/></g><g transform="translate(263.28,206.86) scale(0.9404999999999999) rotate(0)"><path d="M13 0H20V7L7 20H0V13L13 0Z" fill="#dfd5c7"/></g><g transform="translate(282.08,206.86) scale(0.9404999999999999) rotate(0)"><path d="M13 0H20V7L7 20H0V13L13 0Z" fill="#fefefe"/></g><g transform="translate(300.89,188.06) scale(1.8805) rotate(0)"><path d="M13 0H20V7L7 20H0V13L13 0Z" fill="#f6f3ef"/></g><g transform="translate(338.5,188.06) scale(1.8805) rotate(0)"><path d="M13 0H20V7L7 20H0V13L13 0Z" fill="#eae4da"/></g><g transform="translate(376.11,188.06) scale(1.8805) rotate(0)"><path d="M13 0H20V7L7 20H0V13L13 0Z" fill="#d0c0ac"/></g><g transform="translate(413.72,188.06) scale(1.8805) rotate(0)"><path d="M13 0H20V7L7 20H0V13L13 0Z" fill="#c5b399"/></g><g transform="translate(0,225.67) scale(1.8805) rotate(0)"><path d="M13 0H20V7L7 20H0V13L13 0Z" fill="#fcfcfc"/></g><g transform="translate(37.61,225.67) scale(1.8805) rotate(0)"><path d="M13 0H20V7L7 20H0V13L13 0Z" fill="#fefefe"/></g><g transform="translate(75.22,225.67) scale(1.8805) rotate(0)"><path d="M13 0H20V7L7 20H0V13L13 0Z" fill="#fefefe"/></g><g transform="translate(112.83,225.67) scale(1.8805) rotate(0)"><path d="M13 0H20V7L7 20H0V13L13 0Z" fill="#fdfdfd"/></g><g transform="translate(150.44,225.67) scale(1.8805) rotate(0)"><path d="M13 0H20V7L7 20H0V13L13 0Z" fill="#c9b79f"/></g><rect x="188.05555555555557" y="225.66666666666669" width="37.611111111111114" height="37.611111111111114" fill="#ffffff"/><g transform="translate(188.06,225.67) scale(0.9404999999999999) rotate(0)"><path d="M13 0H20V7L7 20H0V13L13 0Z" fill="#d7cab9"/></g><g transform="translate(206.86,225.67) scale(0.9404999999999999) rotate(0)"><path d="M13 0H20V7L7 20H0V13L13 0Z" fill="#d5c7b5"/></g><g transform="translate(188.06,244.47) scale(0.9404999999999999) rotate(0)"><path d="M13 0H20V7L7 20H0V13L13 0Z" fill="#e1d7c9"/></g><g transform="translate(206.86,244.47) scale(0.9404999999999999) rotate(0)"><path d="M13 0H20V7L7 20H0V13L13 0Z" fill="#ffffff"/></g><g transform="translate(225.67,225.67) scale(1.8805) rotate(0)"><path d="M13 0H20V7L7 20H0V13L13 0Z" fill="#fdfdfd"/></g><rect x="263.2777777777778" y="225.66666666666669" width="37.611111111111114" height="37.611111111111114" fill="#ffffff"/><g transform="translate(263.28,225.67) scale(0.9404999999999999) rotate(0)"><path d="M13 0H20V7L7 20H0V13L13 0Z" fill="#fcfcfc"/></g><g transform="translate(282.08,225.67) scale(0.9404999999999999) rotate(0)"><path d="M13 0H20V7L7 20H0V13L13 0Z" fill="#fefefe"/></g><g transform="translate(263.28,244.47) scale(0.9404999999999999) rotate(0)"><path d="M13 0H20V7L7 20H0V13L13 0Z" fill="#fdfdfd"/></g><g transform="translate(282.08,244.47) scale(0.9404999999999999) rotate(0)"><path d="M13 0H20V7L7 20H0V13L13 0Z" fill="#fdfdfd"/></g><g transform="translate(300.89,225.67) scale(1.8805) rotate(0)"><path d="M13 0H20V7L7 20H0V13L13 0Z" fill="#f1ede7"/></g><g transform="translate(338.5,225.67) scale(1.8805) rotate(0)"><path d="M13 0H20V7L7 20H0V13L13 0Z" fill="#d9cdbc"/></g><g transform="translate(376.11,225.67) scale(1.8805) rotate(0)"><path d="M13 0H20V7L7 20H0V13L13 0Z" fill="#e8e1d7"/></g><rect x="413.7222222222223" y="225.66666666666669" width="37.611111111111114" height="37.611111111111114" fill="#ffffff"/><g transform="translate(413.72,225.67) scale(0.9404999999999999) rotate(0)"><path d="M13 0H20V7L7 20H0V13L13 0Z" fill="#dfd4c6"/></g><g transform="translate(432.53,225.67) scale(0.9404999999999999) rotate(0)"><path d="M13 0H20V7L7 20H0V13L13 0Z" fill="#fdfdfd"/></g><g transform="translate(413.72,244.47) scale(0.9404999999999999) rotate(0)"><path d="M13 0H20V7L7 20H0V13L13 0Z" fill="#ffffff"/></g><g transform="translate(432.53,244.47) scale(0.9404999999999999) rotate(0)"><path d="M13 0H20V7L7 20H0V13L13 0Z" fill="#fdfdfd"/></g><rect x="0" y="263.2777777777778" width="37.611111111111114" height="37.611111111111114" fill="#ffffff"/><g transform="translate(0,263.28) scale(0.9404999999999999) rotate(0)"><path d="M13 0H20V7L7 20H0V13L13 0Z" fill="#fefefe"/></g><g transform="translate(18.81,263.28) scale(0.9404999999999999) rotate(0)"><path d="M13 0H20V7L7 20H0V13L13 0Z" fill="#fefefd"/></g><g transform="translate(0,282.08) scale(0.9404999999999999) rotate(0)"><path d="M13 0H20V7L7 20H0V13L13 0Z" fill="#ece6de"/></g><g transform="translate(18.81,282.08) scale(0.9404999999999999) rotate(0)"><path d="M13 0H20V7L7 20H0V13L13 0Z" fill="#fcfcfc"/></g><g transform="translate(37.61,263.28) scale(1.8805) rotate(0)"><path d="M13 0H20V7L7 20H0V13L13 0Z" fill="#f7f4f1"/></g><g transform="translate(75.22,263.28) scale(1.8805) rotate(0)"><path d="M13 0H20V7L7 20H0V13L13 0Z" fill="#fdfcfb"/></g><rect x="112.83333333333334" y="263.2777777777778" width="37.611111111111114" height="37.611111111111114" fill="#ffffff"/><g transform="translate(112.83,263.28) scale(0.9404999999999999) rotate(0)"><path d="M13 0H20V7L7 20H0V13L13 0Z" fill="#fcfcfc"/></g><g transform="translate(131.64,263.28) scale(0.9404999999999999) rotate(0)"><path d="M13 0H20V7L7 20H0V13L13 0Z" fill="#d9cdbd"/></g><g transform="translate(112.83,282.08) scale(0.9404999999999999) rotate(0)"><path d="M13 0H20V7L7 20H0V13L13 0Z" fill="#f3efe9"/></g><g transform="translate(131.64,282.08) scale(0.9404999999999999) rotate(0)"><path d="M13 0H20V7L7 20H0V13L13 0Z" fill="#fefefe"/></g><g transform="translate(150.44,263.28) scale(1.8805) rotate(0)"><path d="M13 0H20V7L7 20H0V13L13 0Z" fill="#fdfdfd"/></g><g transform="translate(188.06,263.28) scale(1.8805) rotate(0)"><path d="M13 0H20V7L7 20H0V13L13 0Z" fill="#fdfdfd"/></g><rect x="225.66666666666669" y="263.2777777777778" width="37.611111111111114" height="37.611111111111114" fill="#ffffff"/><g transform="translate(225.67,263.28) scale(0.9404999999999999) rotate(0)"><path d="M13 0H20V7L7 20H0V13L13 0Z" fill="#fefefe"/></g><g transform="translate(244.47,263.28) scale(0.9404999999999999) rotate(0)"><path d="M13 0H20V7L7 20H0V13L13 0Z" fill="#fefefe"/></g><g transform="translate(225.67,282.08) scale(0.9404999999999999) rotate(0)"><path d="M13 0H20V7L7 20H0V13L13 0Z" fill="#fefefe"/></g><g transform="translate(244.47,282.08) scale(0.9404999999999999) rotate(0)"><path d="M13 0H20V7L7 20H0V13L13 0Z" fill="#fdfdfd"/></g><g transform="translate(263.28,263.28) scale(1.8805) rotate(0)"><path d="M13 0H20V7L7 20H0V13L13 0Z" fill="#fdfdfd"/></g><g transform="translate(300.89,263.28) scale(1.8805) rotate(0)"><path d="M13 0H20V7L7 20H0V13L13 0Z" fill="#fdfdfd"/></g><rect x="338.5" y="263.2777777777778" width="37.611111111111114" height="37.611111111111114" fill="#ffffff"/><g transform="translate(338.5,263.28) scale(0.9404999999999999) rotate(0)"><path d="M13 0H20V7L7 20H0V13L13 0Z" fill="#f3efea"/></g><g transform="translate(357.31,263.28) scale(0.9404999999999999) rotate(0)"><path d="M13 0H20V7L7 20H0V13L13 0Z" fill="#d7cab8"/></g><g transform="translate(338.5,282.08) scale(0.9404999999999999) rotate(0)"><path d="M13 0H20V7L7 20H0V13L13 0Z" fill="#e6ded3"/></g><g transform="translate(357.31,282.08) scale(0.9404999999999999) rotate(0)"><path d="M13 0H20V7L7 20H0V13L13 0Z" fill="#faf9f7"/></g><g transform="translate(376.11,263.28) scale(1.8805) rotate(0)"><path d="M13 0H20V7L7 20H0V13L13 0Z" fill="#fefefe"/></g><g transform="translate(413.72,263.28) scale(1.8805) rotate(0)"><path d="M13 0H20V7L7 20H0V13L13 0Z" fill="#f5f2ed"/></g><g transform="translate(0,300.89) scale(1.8805) rotate(0)"><path d="M13 0H20V7L7 20H0V13L13 0Z" fill="#c9b79f"/></g><g transform="translate(37.61,300.89) scale(1.8805) rotate(0)"><path d="M13 0H20V7L7 20H0V13L13 0Z" fill="#fefefe"/></g><g transform="translate(75.22,300.89) scale(1.8805) rotate(0)"><path d="M13 0H20V7L7 20H0V13L13 0Z" fill="#f3efea"/></g><g transform="translate(112.83,300.89) scale(1.8805) rotate(0)"><path d="M13 0H20V7L7 20H0V13L13 0Z" fill="#fefefe"/></g><g transform="translate(150.44,300.89) scale(1.8805) rotate(0)"><path d="M13 0H20V7L7 20H0V13L13 0Z" fill="#ffffff"/></g><g transform="translate(188.06,300.89) scale(1.8805) rotate(0)"><path d="M13 0H20V7L7 20H0V13L13 0Z" fill="#fdfdfd"/></g><g transform="translate(225.67,300.89) scale(1.8805) rotate(0)"><path d="M13 0H20V7L7 20H0V13L13 0Z" fill="#fefefe"/></g><g transform="translate(263.28,300.89) scale(1.8805) rotate(0)"><path d="M13 0H20V7L7 20H0V13L13 0Z" fill="#fefefe"/></g><g transform="translate(300.89,300.89) scale(1.8805) rotate(0)"><path d="M13 0H20V7L7 20H0V13L13 0Z" fill="#fdfdfd"/></g><g transform="translate(338.5,300.89) scale(1.8805) rotate(0)"><path d="M13 0H20V7L7 20H0V13L13 0Z" fill="#fcfcfc"/></g><g transform="translate(376.11,300.89) scale(1.8805) rotate(0)"><path d="M13 0H20V7L7 20H0V13L13 0Z" fill="#fefefe"/></g><g transform="translate(413.72,300.89) scale(1.8805) rotate(0)"><path d="M13 0H20V7L7 20H0V13L13 0Z" fill="#d9ccbc"/></g><g transform="translate(0,338.5) scale(1.8805) rotate(0)"><path d="M13 0H20V7L7 20H0V13L13 0Z" fill="#dbd0c0"/></g><rect x="37.611111111111114" y="338.5" width="37.611111111111114" height="37.611111111111114" fill="#ffffff"/><g transform="translate(37.61,338.5) scale(0.9404999999999999) rotate(0)"><path d="M13 0H20V7L7 20H0V13L13 0Z" fill="#fdfdfd"/></g><g transform="translate(56.42,338.5) scale(0.9404999999999999) rotate(0)"><path d="M13 0H20V7L7 20H0V13L13 0Z" fill="#fdfdfd"/></g><g transform="translate(37.61,357.31) scale(0.9404999999999999) rotate(0)"><path d="M13 0H20V7L7 20H0V13L13 0Z" fill="#e7dfd5"/></g><g transform="translate(56.42,357.31) scale(0.9404999999999999) rotate(0)"><path d="M13 0H20V7L7 20H0V13L13 0Z" fill="#fefefe"/></g><rect x="75.22222222222223" y="338.5" width="37.611111111111114" height="37.611111111111114" fill="#ffffff"/><g transform="translate(75.22,338.5) scale(0.9404999999999999) rotate(0)"><path d="M13 0H20V7L7 20H0V13L13 0Z" fill="#fdfdfd"/></g><g transform="translate(94.03,338.5) scale(0.9404999999999999) rotate(0)"><path d="M13 0H20V7L7 20H0V13L13 0Z" fill="#f3efea"/></g><g transform="translate(75.22,357.31) scale(0.9404999999999999) rotate(0)"><path d="M13 0H20V7L7 20H0V13L13 0Z" fill="#eae3d9"/></g><g transform="translate(94.03,357.31) scale(0.9404999999999999) rotate(0)"><path d="M13 0H20V7L7 20H0V13L13 0Z" fill="#d8ccbb"/></g><g transform="translate(112.83,338.5) scale(1.8805) rotate(0)"><path d="M13 0H20V7L7 20H0V13L13 0Z" fill="#d4c6b2"/></g><g transform="translate(150.44,338.5) scale(1.8805) rotate(0)"><path d="M13 0H20V7L7 20H0V13L13 0Z" fill="#c9b8a0"/></g><g transform="translate(188.06,338.5) scale(1.8805) rotate(0)"><path d="M13 0H20V7L7 20H0V13L13 0Z" fill="#c9b79f"/></g><g transform="translate(225.67,338.5) scale(1.8805) rotate(0)"><path d="M13 0H20V7L7 20H0V13L13 0Z" fill="#ece6dd"/></g><rect x="263.2777777777778" y="338.5" width="37.611111111111114" height="37.611111111111114" fill="#ffffff"/><g transform="translate(263.28,338.5) scale(0.9404999999999999) rotate(0)"><path d="M13 0H20V7L7 20H0V13L13 0Z" fill="#f5f2ed"/></g><g transform="translate(282.08,338.5) scale(0.9404999999999999) rotate(0)"><path d="M13 0H20V7L7 20H0V13L13 0Z" fill="#fefefe"/></g><g transform="translate(263.28,357.31) scale(0.9404999999999999) rotate(0)"><path d="M13 0H20V7L7 20H0V13L13 0Z" fill="#ded4c5"/></g><g transform="translate(282.08,357.31) scale(0.9404999999999999) rotate(0)"><path d="M13 0H20V7L7 20H0V13L13 0Z" fill="#efeae3"/></g><g transform="translate(300.89,338.5) scale(1.8805) rotate(0)"><path d="M13 0H20V7L7 20H0V13L13 0Z" fill="#fcfcfc"/></g><rect x="338.5" y="338.5" width="37.611111111111114" height="37.611111111111114" fill="#ffffff"/><g transform="translate(338.5,338.5) scale(0.9404999999999999) rotate(0)"><path d="M13 0H20V7L7 20H0V13L13 0Z" fill="#c8b69e"/></g><g transform="translate(357.31,338.5) scale(0.9404999999999999) rotate(0)"><path d="M13 0H20V7L7 20H0V13L13 0Z" fill="#fefefe"/></g><g transform="translate(338.5,357.31) scale(0.9404999999999999) rotate(0)"><path d="M13 0H20V7L7 20H0V13L13 0Z" fill="#fcfcfc"/></g><g transform="translate(357.31,357.31) scale(0.9404999999999999) rotate(0)"><path d="M13 0H20V7L7 20H0V13L13 0Z" fill="#e5dcd1"/></g><g transform="translate(376.11,338.5) scale(1.8805) rotate(0)"><path d="M13 0H20V7L7 20H0V13L13 0Z" fill="#e8e0d6"/></g><g transform="translate(413.72,338.5) scale(1.8805) rotate(0)"><path d="M13 0H20V7L7 20H0V13L13 0Z" fill="#cdbca6"/></g><g transform="translate(0,376.11) scale(1.8805) rotate(0)"><path d="M13 0H20V7L7 20H0V13L13 0Z" fill="#ffffff"/></g><g transform="translate(37.61,376.11) scale(1.8805) rotate(0)"><path d="M13 0H20V7L7 20H0V13L13 0Z" fill="#c6b39a"/></g><rect x="75.22222222222223" y="376.11111111111114" width="37.611111111111114" height="37.611111111111114" fill="#ffffff"/><g transform="translate(75.22,376.11) scale(0.9404999999999999) rotate(0)"><path d="M13 0H20V7L7 20H0V13L13 0Z" fill="#cbbaa3"/></g><g transform="translate(94.03,376.11) scale(0.9404999999999999) rotate(0)"><path d="M13 0H20V7L7 20H0V13L13 0Z" fill="#c5b298"/></g><g transform="translate(75.22,394.92) scale(0.9404999999999999) rotate(0)"><path d="M13 0H20V7L7 20H0V13L13 0Z" fill="#c4b197"/></g><g transform="translate(94.03,394.92) scale(0.9404999999999999) rotate(0)"><path d="M13 0H20V7L7 20H0V13L13 0Z" fill="#f8f6f3"/></g><g transform="translate(112.83,376.11) scale(1.8805) rotate(0)"><path d="M13 0H20V7L7 20H0V13L13 0Z" fill="#dcd1c2"/></g><rect x="150.44444444444446" y="376.11111111111114" width="37.611111111111114" height="37.611111111111114" fill="#ffffff"/><g transform="translate(150.44,376.11) scale(0.9404999999999999) rotate(0)"><path d="M13 0H20V7L7 20H0V13L13 0Z" fill="#c6b49a"/></g><g transform="translate(169.25,376.11) scale(0.9404999999999999) rotate(0)"><path d="M13 0H20V7L7 20H0V13L13 0Z" fill="#ffffff"/></g><g transform="translate(150.44,394.92) scale(0.9404999999999999) rotate(0)"><path d="M13 0H20V7L7 20H0V13L13 0Z" fill="#fdfdfc"/></g><g transform="translate(169.25,394.92) scale(0.9404999999999999) rotate(0)"><path d="M13 0H20V7L7 20H0V13L13 0Z" fill="#dacebd"/></g><g transform="translate(188.06,376.11) scale(1.8805) rotate(0)"><path d="M13 0H20V7L7 20H0V13L13 0Z" fill="#ffffff"/></g><g transform="translate(225.67,376.11) scale(1.8805) rotate(0)"><path d="M13 0H20V7L7 20H0V13L13 0Z" fill="#fdfdfd"/></g><rect x="263.2777777777778" y="376.11111111111114" width="37.611111111111114" height="37.611111111111114" fill="#ffffff"/><g transform="translate(263.28,376.11) scale(0.9404999999999999) rotate(0)"><path d="M13 0H20V7L7 20H0V13L13 0Z" fill="#e7dfd5"/></g><g transform="translate(282.08,376.11) scale(0.9404999999999999) rotate(0)"><path d="M13 0H20V7L7 20H0V13L13 0Z" fill="#cab9a1"/></g><g transform="translate(263.28,394.92) scale(0.9404999999999999) rotate(0)"><path d="M13 0H20V7L7 20H0V13L13 0Z" fill="#ece5dd"/></g><g transform="translate(282.08,394.92) scale(0.9404999999999999) rotate(0)"><path d="M13 0H20V7L7 20H0V13L13 0Z" fill="#f6f3ee"/></g><g transform="translate(300.89,376.11) scale(1.8805) rotate(0)"><path d="M13 0H20V7L7 20H0V13L13 0Z" fill="#c7b59c"/></g><g transform="translate(338.5,376.11) scale(1.8805) rotate(0)"><path d="M13 0H20V7L7 20H0V13L13 0Z" fill="#f8f6f3"/></g><g transform="translate(376.11,376.11) scale(1.8805) rotate(0)"><path d="M13 0H20V7L7 20H0V13L13 0Z" fill="#c3af95"/></g><g transform="translate(413.72,376.11) scale(1.8805) rotate(0)"><path d="M13 0H20V7L7 20H0V13L13 0Z" fill="#fefefe"/></g><g transform="translate(0,413.72) scale(1.8805) rotate(0)"><path d="M13 0H20V7L7 20H0V13L13 0Z" fill="#e0d6c8"/></g><g transform="translate(37.61,413.72) scale(1.8805) rotate(0)"><path d="M13 0H20V7L7 20H0V13L13 0Z" fill="#fdfdfd"/></g><g transform="translate(75.22,413.72) scale(1.8805) rotate(0)"><path d="M13 0H20V7L7 20H0V13L13 0Z" fill="#f0ebe5"/></g><g transform="translate(112.83,413.72) scale(1.8805) rotate(0)"><path d="M13 0H20V7L7 20H0V13L13 0Z" fill="#fdfdfd"/></g><g transform="translate(150.44,413.72) scale(1.8805) rotate(0)"><path d="M13 0H20V7L7 20H0V13L13 0Z" fill="#fefefe"/></g><g transform="translate(188.06,413.72) scale(1.8805) rotate(0)"><path d="M13 0H20V7L7 20H0V13L13 0Z" fill="#fdfdfd"/></g><g transform="translate(225.67,413.72) scale(1.8805) rotate(0)"><path d="M13 0H20V7L7 20H0V13L13 0Z" fill="#faf9f7"/></g><g transform="translate(263.28,413.72) scale(1.8805) rotate(0)"><path d="M13 0H20V7L7 20H0V13L13 0Z" fill="#ede7e0"/></g><rect x="300.8888888888889" y="413.7222222222223" width="37.611111111111114" height="37.611111111111114" fill="#ffffff"/><g transform="translate(300.89,413.72) scale(0.9404999999999999) rotate(0)"><path d="M13 0H20V7L7 20H0V13L13 0Z" fill="#dbd0c0"/></g><g transform="translate(319.69,413.72) scale(0.9404999999999999) rotate(0)"><path d="M13 0H20V7L7 20H0V13L13 0Z" fill="#fefefe"/></g><g transform="translate(300.89,432.53) scale(0.9404999999999999) rotate(0)"><path d="M13 0H20V7L7 20H0V13L13 0Z" fill="#fefefe"/></g><g transform="translate(319.69,432.53) scale(0.9404999999999999) rotate(0)"><path d="M13 0H20V7L7 20H0V13L13 0Z" fill="#fdfdfd"/></g><rect x="338.5" y="413.7222222222223" width="37.611111111111114" height="37.611111111111114" fill="#ffffff"/><g transform="translate(338.5,413.72) scale(0.9404999999999999) rotate(0)"><path d="M13 0H20V7L7 20H0V13L13 0Z" fill="#d2c3af"/></g><g transform="translate(357.31,413.72) scale(0.9404999999999999) rotate(0)"><path d="M13 0H20V7L7 20H0V13L13 0Z" fill="#fcfcfc"/></g><g transform="translate(338.5,432.53) scale(0.9404999999999999) rotate(0)"><path d="M13 0H20V7L7 20H0V13L13 0Z" fill="#fcfcfc"/></g><g transform="translate(357.31,432.53) scale(0.9404999999999999) rotate(0)"><path d="M13 0H20V7L7 20H0V13L13 0Z" fill="#fdfdfd"/></g><g transform="translate(376.11,413.72) scale(1.8805) rotate(0)"><path d="M13 0H20V7L7 20H0V13L13 0Z" fill="#ffffff"/></g><g transform="translate(413.72,413.72) scale(1.8805) rotate(0)"><path d="M13 0H20V7L7 20H0V13L13 0Z" fill="#eee8e1"/></g><g transform="translate(0,451.33) scale(1.8805) rotate(0)"><path d="M13 0H20V7L7 20H0V13L13 0Z" fill="#fefefe"/></g><g transform="translate(37.61,451.33) scale(1.8805) rotate(0)"><path d="M13 0H20V7L7 20H0V13L13 0Z" fill="#fcfcfc"/></g><g transform="translate(75.22,451.33) scale(1.8805) rotate(0)"><path d="M13 0H20V7L7 20H0V13L13 0Z" fill="#ffffff"/></g><rect x="112.83333333333334" y="451.33333333333337" width="37.611111111111114" height="37.611111111111114" fill="#ffffff"/><g transform="translate(112.83,451.33) scale(0.9404999999999999) rotate(0)"><path d="M13 0H20V7L7 20H0V13L13 0Z" fill="#efeae3"/></g><g transform="translate(131.64,451.33) scale(0.9404999999999999) rotate(0)"><path d="M13 0H20V7L7 20H0V13L13 0Z" fill="#fdfdfd"/></g><g transform="translate(112.83,470.14) scale(0.9404999999999999) rotate(0)"><path d="M13 0H20V7L7 20H0V13L13 0Z" fill="#ffffff"/></g><g transform="translate(131.64,470.14) scale(0.9404999999999999) rotate(0)"><path d="M13 0H20V7L7 20H0V13L13 0Z" fill="#fefefe"/></g><g transform="translate(150.44,451.33) scale(1.8805) rotate(0)"><path d="M13 0H20V7L7 20H0V13L13 0Z" fill="#c7b49b"/></g><g transform="translate(188.06,451.33) scale(1.8805) rotate(0)"><path d="M13 0H20V7L7 20H0V13L13 0Z" fill="#fcfcfc"/></g><g transform="translate(225.67,451.33) scale(1.8805) rotate(0)"><path d="M13 0H20V7L7 20H0V13L13 0Z" fill="#ffffff"/></g><g transform="translate(263.28,451.33) scale(1.8805) rotate(0)"><path d="M13 0H20V7L7 20H0V13L13 0Z" fill="#fefefe"/></g><g transform="translate(300.89,451.33) scale(1.8805) rotate(0)"><path d="M13 0H20V7L7 20H0V13L13 0Z" fill="#fdfdfd"/></g><g transform="translate(338.5,451.33) scale(1.8805) rotate(0)"><path d="M13 0H20V7L7 20H0V13L13 0Z" fill="#dbd0c0"/></g><g transform="translate(376.11,451.33) scale(1.8805) rotate(0)"><path d="M13 0H20V7L7 20H0V13L13 0Z" fill="#fefefe"/></g><g transform="translate(413.72,451.33) scale(1.8805) rotate(0)"><path d="M13 0H20V7L7 20H0V13L13 0Z" fill="#fcfcfc"/></g><g transform="translate(0,488.94) scale(1.8805) rotate(0)"><path d="M13 0H20V7L7 20H0V13L13 0Z" fill="#fdfdfd"/></g><rect x="37.611111111111114" y="488.94444444444446" width="37.611111111111114" height="37.611111111111114" fill="#ffffff"/><g transform="translate(37.61,488.94) scale(0.9404999999999999) rotate(0)"><path d="M13 0H20V7L7 20H0V13L13 0Z" fill="#e8e1d6"/></g><g transform="translate(56.42,488.94) scale(0.9404999999999999) rotate(0)"><path d="M13 0H20V7L7 20H0V13L13 0Z" fill="#fefefe"/></g><g transform="translate(37.61,507.75) scale(0.9404999999999999) rotate(0)"><path d="M13 0H20V7L7 20H0V13L13 0Z" fill="#f1ece6"/></g><g transform="translate(56.42,507.75) scale(0.9404999999999999) rotate(0)"><path d="M13 0H20V7L7 20H0V13L13 0Z" fill="#d2c3af"/></g><g transform="translate(75.22,488.94) scale(1.8805) rotate(0)"><path d="M13 0H20V7L7 20H0V13L13 0Z" fill="#c3af94"/></g><rect x="112.83333333333334" y="488.94444444444446" width="37.611111111111114" height="37.611111111111114" fill="#ffffff"/><g transform="translate(112.83,488.94) scale(0.9404999999999999) rotate(0)"><path d="M13 0H20V7L7 20H0V13L13 0Z" fill="#fdfdfd"/></g><g transform="translate(131.64,488.94) scale(0.9404999999999999) rotate(0)"><path d="M13 0H20V7L7 20H0V13L13 0Z" fill="#f3efea"/></g><g transform="translate(112.83,507.75) scale(0.9404999999999999) rotate(0)"><path d="M13 0H20V7L7 20H0V13L13 0Z" fill="#ffffff"/></g><g transform="translate(131.64,507.75) scale(0.9404999999999999) rotate(0)"><path d="M13 0H20V7L7 20H0V13L13 0Z" fill="#f5f1ed"/></g><g transform="translate(150.44,488.94) scale(1.8805) rotate(0)"><path d="M13 0H20V7L7 20H0V13L13 0Z" fill="#fdfdfd"/></g><g transform="translate(188.06,488.94) scale(1.8805) rotate(0)"><path d="M13 0H20V7L7 20H0V13L13 0Z" fill="#fdfdfd"/></g><rect x="225.66666666666669" y="488.94444444444446" width="37.611111111111114" height="37.611111111111114" fill="#ffffff"/><g transform="translate(225.67,488.94) scale(0.9404999999999999) rotate(0)"><path d="M13 0H20V7L7 20H0V13L13 0Z" fill="#fdfdfc"/></g><g transform="translate(244.47,488.94) scale(0.9404999999999999) rotate(0)"><path d="M13 0H20V7L7 20H0V13L13 0Z" fill="#ffffff"/></g><g transform="translate(225.67,507.75) scale(0.9404999999999999) rotate(0)"><path d="M13 0H20V7L7 20H0V13L13 0Z" fill="#fbfaf8"/></g><g transform="translate(244.47,507.75) scale(0.9404999999999999) rotate(0)"><path d="M13 0H20V7L7 20H0V13L13 0Z" fill="#ffffff"/></g><g transform="translate(263.28,488.94) scale(1.8805) rotate(0)"><path d="M13 0H20V7L7 20H0V13L13 0Z" fill="#e1d7c9"/></g><g transform="translate(300.89,488.94) scale(1.8805) rotate(0)"><path d="M13 0H20V7L7 20H0V13L13 0Z" fill="#fefefe"/></g><g transform="translate(338.5,488.94) scale(1.8805) rotate(0)"><path d="M13 0H20V7L7 20H0V13L13 0Z" fill="#fdfdfd"/></g><g transform="translate(376.11,488.94) scale(1.8805) rotate(0)"><path d="M13 0H20V7L7 20H0V13L13 0Z" fill="#f7f5f1"/></g><g transform="translate(413.72,488.94) scale(1.8805) rotate(0)"><path d="M13 0H20V7L7 20H0V13L13 0Z" fill="#d4c6b3"/></g><g transform="translate(0,526.56) scale(1.8805) rotate(0)"><path d="M13 0H20V7L7 20H0V13L13 0Z" fill="#c6b39a"/></g><g transform="translate(37.61,526.56) scale(1.8805) rotate(0)"><path d="M13 0H20V7L7 20H0V13L13 0Z" fill="#fefefe"/></g><g transform="translate(75.22,526.56) scale(1.8805) rotate(0)"><path d="M13 0H20V7L7 20H0V13L13 0Z" fill="#cdbda7"/></g><g transform="translate(112.83,526.56) scale(1.8805) rotate(0)"><path d="M13 0H20V7L7 20H0V13L13 0Z" fill="#fdfdfd"/></g><g transform="translate(150.44,526.56) scale(1.8805) rotate(0)"><path d="M13 0H20V7L7 20H0V13L13 0Z" fill="#fdfdfd"/></g><rect x="188.05555555555557" y="526.5555555555557" width="37.611111111111114" height="37.611111111111114" fill="#ffffff"/><g transform="translate(188.06,526.56) scale(0.9404999999999999) rotate(0)"><path d="M13 0H20V7L7 20H0V13L13 0Z" fill="#d2c4b0"/></g><g transform="translate(206.86,526.56) scale(0.9404999999999999) rotate(0)"><path d="M13 0H20V7L7 20H0V13L13 0Z" fill="#fdfdfd"/></g><g transform="translate(188.06,545.36) scale(0.9404999999999999) rotate(0)"><path d="M13 0H20V7L7 20H0V13L13 0Z" fill="#fcfcfc"/></g><g transform="translate(206.86,545.36) scale(0.9404999999999999) rotate(0)"><path d="M13 0H20V7L7 20H0V13L13 0Z" fill="#fefefe"/></g><g transform="translate(225.67,526.56) scale(1.8805) rotate(0)"><path d="M13 0H20V7L7 20H0V13L13 0Z" fill="#e7dfd5"/></g><g transform="translate(263.28,526.56) scale(1.8805) rotate(0)"><path d="M13 0H20V7L7 20H0V13L13 0Z" fill="#f4f0ec"/></g><rect x="300.8888888888889" y="526.5555555555557" width="37.611111111111114" height="37.611111111111114" fill="#ffffff"/><g transform="translate(300.89,526.56) scale(0.9404999999999999) rotate(0)"><path d="M13 0H20V7L7 20H0V13L13 0Z" fill="#c9b8a0"/></g><g transform="translate(319.69,526.56) scale(0.9404999999999999) rotate(0)"><path d="M13 0H20V7L7 20H0V13L13 0Z" fill="#fdfdfd"/></g><g transform="translate(300.89,545.36) scale(0.9404999999999999) rotate(0)"><path d="M13 0H20V7L7 20H0V13L13 0Z" fill="#cfbfaa"/></g><g transform="translate(319.69,545.36) scale(0.9404999999999999) rotate(0)"><path d="M13 0H20V7L7 20H0V13L13 0Z" fill="#ffffff"/></g><g transform="translate(338.5,526.56) scale(1.8805) rotate(0)"><path d="M13 0H20V7L7 20H0V13L13 0Z" fill="#fefefe"/></g><rect x="376.11111111111114" y="526.5555555555557" width="37.611111111111114" height="37.611111111111114" fill="#ffffff"/><g transform="translate(376.11,526.56) scale(0.9404999999999999) rotate(0)"><path d="M13 0H20V7L7 20H0V13L13 0Z" fill="#c9b79f"/></g><g transform="translate(394.92,526.56) scale(0.9404999999999999) rotate(0)"><path d="M13 0H20V7L7 20H0V13L13 0Z" fill="#eae3da"/></g><g transform="translate(376.11,545.36) scale(0.9404999999999999) rotate(0)"><path d="M13 0H20V7L7 20H0V13L13 0Z" fill="#fcfcfc"/></g><g transform="translate(394.92,545.36) scale(0.9404999999999999) rotate(0)"><path d="M13 0H20V7L7 20H0V13L13 0Z" fill="#d9cdbc"/></g><g transform="translate(413.72,526.56) scale(1.8805) rotate(0)"><path d="M13 0H20V7L7 20H0V13L13 0Z" fill="#ece5dd"/></g><g transform="translate(0,564.17) scale(1.8805) rotate(0)"><path d="M13 0H20V7L7 20H0V13L13 0Z" fill="#fefefe"/></g><g transform="translate(37.61,564.17) scale(1.8805) rotate(0)"><path d="M13 0H20V7L7 20H0V13L13 0Z" fill="#cebea8"/></g><g transform="translate(75.22,564.17) scale(1.8805) rotate(0)"><path d="M13 0H20V7L7 20H0V13L13 0Z" fill="#fdfdfd"/></g><g transform="translate(112.83,564.17) scale(1.8805) rotate(0)"><path d="M13 0H20V7L7 20H0V13L13 0Z" fill="#ffffff"/></g><rect x="150.44444444444446" y="564.1666666666667" width="37.611111111111114" height="37.611111111111114" fill="#ffffff"/><g transform="translate(150.44,564.17) scale(0.9404999999999999) rotate(0)"><path d="M13 0H20V7L7 20H0V13L13 0Z" fill="#ffffff"/></g><g transform="translate(169.25,564.17) scale(0.9404999999999999) rotate(0)"><path d="M13 0H20V7L7 20H0V13L13 0Z" fill="#ffffff"/></g><g transform="translate(150.44,582.97) scale(0.9404999999999999) rotate(0)"><path d="M13 0H20V7L7 20H0V13L13 0Z" fill="#fdfdfd"/></g><g transform="translate(169.25,582.97) scale(0.9404999999999999) rotate(0)"><path d="M13 0H20V7L7 20H0V13L13 0Z" fill="#c9b8a0"/></g><rect x="188.05555555555557" y="564.1666666666667" width="37.611111111111114" height="37.611111111111114" fill="#ffffff"/><g transform="translate(188.06,564.17) scale(0.9404999999999999) rotate(0)"><path d="M13 0H20V7L7 20H0V13L13 0Z" fill="#fdfdfd"/></g><g transform="translate(206.86,564.17) scale(0.9404999999999999) rotate(0)"><path d="M13 0H20V7L7 20H0V13L13 0Z" fill="#fdfdfd"/></g><g transform="translate(188.06,582.97) scale(0.9404999999999999) rotate(0)"><path d="M13 0H20V7L7 20H0V13L13 0Z" fill="#fcfcfc"/></g><g transform="translate(206.86,582.97) scale(0.9404999999999999) rotate(0)"><path d="M13 0H20V7L7 20H0V13L13 0Z" fill="#f7f4f0"/></g><g transform="translate(225.67,564.17) scale(1.8805) rotate(0)"><path d="M13 0H20V7L7 20H0V13L13 0Z" fill="#fefefe"/></g><g transform="translate(263.28,564.17) scale(1.8805) rotate(0)"><path d="M13 0H20V7L7 20H0V13L13 0Z" fill="#d6c9b7"/></g><g transform="translate(300.89,564.17) scale(1.8805) rotate(0)"><path d="M13 0H20V7L7 20H0V13L13 0Z" fill="#f1ede7"/></g><rect x="338.5" y="564.1666666666667" width="37.611111111111114" height="37.611111111111114" fill="#ffffff"/><g transform="translate(338.5,564.17) scale(0.9404999999999999) rotate(0)"><path d="M13 0H20V7L7 20H0V13L13 0Z" fill="#fdfdfd"/></g><g transform="translate(357.31,564.17) scale(0.9404999999999999) rotate(0)"><path d="M13 0H20V7L7 20H0V13L13 0Z" fill="#ede7df"/></g><g transform="translate(338.5,582.97) scale(0.9404999999999999) rotate(0)"><path d="M13 0H20V7L7 20H0V13L13 0Z" fill="#fefefe"/></g><g transform="translate(357.31,582.97) scale(0.9404999999999999) rotate(0)"><path d="M13 0H20V7L7 20H0V13L13 0Z" fill="#d7cab8"/></g><g transform="translate(376.11,564.17) scale(1.8805) rotate(0)"><path d="M13 0H20V7L7 20H0V13L13 0Z" fill="#d4c6b3"/></g><rect x="413.7222222222223" y="564.1666666666667" width="37.611111111111114" height="37.611111111111114" fill="#ffffff"/><g transform="translate(413.72,564.17) scale(0.9404999999999999) rotate(0)"><path d="M13 0H20V7L7 20H0V13L13 0Z" fill="#eae3da"/></g><g transform="translate(432.53,564.17) scale(0.9404999999999999) rotate(0)"><path d="M13 0H20V7L7 20H0V13L13 0Z" fill="#c5b299"/></g><g transform="translate(413.72,582.97) scale(0.9404999999999999) rotate(0)"><path d="M13 0H20V7L7 20H0V13L13 0Z" fill="#fcfcfc"/></g><g transform="translate(432.53,582.97) scale(0.9404999999999999) rotate(0)"><path d="M13 0H20V7L7 20H0V13L13 0Z" fill="#fdfdfd"/></g><g transform="translate(0,601.78) scale(1.8805) rotate(0)"><path d="M13 0H20V7L7 20H0V13L13 0Z" fill="#fcfcfc"/></g><g transform="translate(37.61,601.78) scale(1.8805) rotate(0)"><path d="M13 0H20V7L7 20H0V13L13 0Z" fill="#fefefe"/></g><g transform="translate(75.22,601.78) scale(1.8805) rotate(0)"><path d="M13 0H20V7L7 20H0V13L13 0Z" fill="#fefefe"/></g><rect x="112.83333333333334" y="601.7777777777778" width="37.611111111111114" height="37.611111111111114" fill="#ffffff"/><g transform="translate(112.83,601.78) scale(0.9404999999999999) rotate(0)"><path d="M13 0H20V7L7 20H0V13L13 0Z" fill="#fefefe"/></g><g transform="translate(131.64,601.78) scale(0.9404999999999999) rotate(0)"><path d="M13 0H20V7L7 20H0V13L13 0Z" fill="#ffffff"/></g><g transform="translate(112.83,620.58) scale(0.9404999999999999) rotate(0)"><path d="M13 0H20V7L7 20H0V13L13 0Z" fill="#fdfdfd"/></g><g transform="translate(131.64,620.58) scale(0.9404999999999999) rotate(0)"><path d="M13 0H20V7L7 20H0V13L13 0Z" fill="#fefefe"/></g><g transform="translate(150.44,601.78) scale(1.8805) rotate(0)"><path d="M13 0H20V7L7 20H0V13L13 0Z" fill="#fefefe"/></g><g transform="translate(188.06,601.78) scale(1.8805) rotate(0)"><path d="M13 0H20V7L7 20H0V13L13 0Z" fill="#f0ebe4"/></g><g transform="translate(225.67,601.78) scale(1.8805) rotate(0)"><path d="M13 0H20V7L7 20H0V13L13 0Z" fill="#fefefe"/></g><g transform="translate(263.28,601.78) scale(1.8805) rotate(0)"><path d="M13 0H20V7L7 20H0V13L13 0Z" fill="#d9ccbc"/></g><rect x="300.8888888888889" y="601.7777777777778" width="37.611111111111114" height="37.611111111111114" fill="#ffffff"/><g transform="translate(300.89,601.78) scale(0.9404999999999999) rotate(0)"><path d="M13 0H20V7L7 20H0V13L13 0Z" fill="#f7f4f1"/></g><g transform="translate(319.69,601.78) scale(0.9404999999999999) rotate(0)"><path d="M13 0H20V7L7 20H0V13L13 0Z" fill="#fefefe"/></g><g transform="translate(300.89,620.58) scale(0.9404999999999999) rotate(0)"><path d="M13 0H20V7L7 20H0V13L13 0Z" fill="#fefefe"/></g><g transform="translate(319.69,620.58) scale(0.9404999999999999) rotate(0)"><path d="M13 0H20V7L7 20H0V13L13 0Z" fill="#fdfdfd"/></g><g transform="translate(338.5,601.78) scale(1.8805) rotate(0)"><path d="M13 0H20V7L7 20H0V13L13 0Z" fill="#dacebd"/></g><g transform="translate(376.11,601.78) scale(1.8805) rotate(0)"><path d="M13 0H20V7L7 20H0V13L13 0Z" fill="#c6b39a"/></g><g transform="translate(413.72,601.78) scale(1.8805) rotate(0)"><path d="M13 0H20V7L7 20H0V13L13 0Z" fill="#f1ece6"/></g><rect x="0" y="639.3888888888889" width="37.611111111111114" height="37.611111111111114" fill="#ffffff"/><g transform="translate(0,639.39) scale(0.9404999999999999) rotate(0)"><path d="M13 0H20V7L7 20H0V13L13 0Z" fill="#fefefe"/></g><g transform="translate(18.81,639.39) scale(0.9404999999999999) rotate(0)"><path d="M13 0H20V7L7 20H0V13L13 0Z" fill="#fefefe"/></g><g transform="translate(0,658.19) scale(0.9404999999999999) rotate(0)"><path d="M13 0H20V7L7 20H0V13L13 0Z" fill="#fdfdfd"/></g><g transform="translate(18.81,658.19) scale(0.9404999999999999) rotate(0)"><path d="M13 0H20V7L7 20H0V13L13 0Z" fill="#e9e2d8"/></g><g transform="translate(37.61,639.39) scale(1.8805) rotate(0)"><path d="M13 0H20V7L7 20H0V13L13 0Z" fill="#f1ede7"/></g><rect x="75.22222222222223" y="639.3888888888889" width="37.611111111111114" height="37.611111111111114" fill="#ffffff"/><g transform="translate(75.22,639.39) scale(0.9404999999999999) rotate(0)"><path d="M13 0H20V7L7 20H0V13L13 0Z" fill="#f8f5f2"/></g><g transform="translate(94.03,639.39) scale(0.9404999999999999) rotate(0)"><path d="M13 0H20V7L7 20H0V13L13 0Z" fill="#c8b69e"/></g><g transform="translate(75.22,658.19) scale(0.9404999999999999) rotate(0)"><path d="M13 0H20V7L7 20H0V13L13 0Z" fill="#c7b59c"/></g><g transform="translate(94.03,658.19) scale(0.9404999999999999) rotate(0)"><path d="M13 0H20V7L7 20H0V13L13 0Z" fill="#f3efea"/></g><rect x="112.83333333333334" y="639.3888888888889" width="37.611111111111114" height="37.611111111111114" fill="#ffffff"/><g transform="translate(112.83,639.39) scale(0.9404999999999999) rotate(0)"><path d="M13 0H20V7L7 20H0V13L13 0Z" fill="#fdfdfd"/></g><g transform="translate(131.64,639.39) scale(0.9404999999999999) rotate(0)"><path d="M13 0H20V7L7 20H0V13L13 0Z" fill="#e7dfd4"/></g><g transform="translate(112.83,658.19) scale(0.9404999999999999) rotate(0)"><path d="M13 0H20V7L7 20H0V13L13 0Z" fill="#cfbfaa"/></g><g transform="translate(131.64,658.19) scale(0.9404999999999999) rotate(0)"><path d="M13 0H20V7L7 20H0V13L13 0Z" fill="#c4b096"/></g><g transform="translate(150.44,639.39) scale(1.8805) rotate(0)"><path d="M13 0H20V7L7 20H0V13L13 0Z" fill="#d3c4b0"/></g><g transform="translate(188.06,639.39) scale(1.8805) rotate(0)"><path d="M13 0H20V7L7 20H0V13L13 0Z" fill="#e4dbcf"/></g><g transform="translate(225.67,639.39) scale(1.8805) rotate(0)"><path d="M13 0H20V7L7 20H0V13L13 0Z" fill="#fefefe"/></g><g transform="translate(263.28,639.39) scale(1.8805) rotate(0)"><path d="M13 0H20V7L7 20H0V13L13 0Z" fill="#fdfdfd"/></g><g transform="translate(300.89,639.39) scale(1.8805) rotate(0)"><path d="M13 0H20V7L7 20H0V13L13 0Z" fill="#fdfdfd"/></g><g transform="translate(338.5,639.39) scale(1.8805) rotate(0)"><path d="M13 0H20V7L7 20H0V13L13 0Z" fill="#cfc0ab"/></g><g transform="translate(376.11,639.39) scale(1.8805) rotate(0)"><path d="M13 0H20V7L7 20H0V13L13 0Z" fill="#d1c2ad"/></g><g transform="translate(413.72,639.39) scale(1.8805) rotate(0)"><path d="M13 0H20V7L7 20H0V13L13 0Z" fill="#fefefe"/></g></g></svg>