<?xml version="1.0" standalone="no"?><svg xmlns:xlink="http://www.w3.org/1999/xlink" xmlns="http://www.w3.org/2000/svg" viewBox="0 0 1000 1500.0193550884528" preserveAspectRatio="xMaxYMax slice"><g transform="scale(2.419386056594279)"><rect x="0" y="0" width="413.3333333333333" height="620" fill="#ffffff"/><path d="M 0 34.44 A 34.44 34.44 0 0 1  34.44 0 L 0 34.44 A 34.44 34.44 0 0 0 34.44 0" fill="#e9e2d8"/><path d="M 34.44 34.44 A 34.44 34.44 0 0 1  68.88 0 L 34.44 34.44 A 34.44 34.44 0 0 0 68.88 0" fill="#ffffff"/><path d="M 68.89 34.44 A 34.44 34.44 0 0 1  103.33 0 L 68.89 34.44 A 34.44 34.44 0 0 0 103.33 0" fill="#e2d8cb"/><path d="M 103.33 0 A 34.44 34.44 0 0 1  137.76999999999998 34.44 L 103.33 0 A 34.44 34.44 0 0 0 137.76999999999998 34.44" fill="#fdfdfd"/><path d="M 137.78 0 A 34.44 34.44 0 0 1  172.22 34.44 L 137.78 0 A 34.44 34.44 0 0 0 172.22 34.44" fill="#fcfcfc"/><path d="M 172.22 0 A 34.44 34.44 0 0 1  206.66 34.44 L 172.22 0 A 34.44 34.44 0 0 0 206.66 34.44" fill="#e4dbcf"/><path d="M 206.67 0 A 34.44 34.44 0 0 1  241.10999999999999 34.44 L 206.67 0 A 34.44 34.44 0 0 0 241.10999999999999 34.44" fill="#fcfcfc"/><rect x="241.1111111111111" y="0" width="34.44444444444444" height="34.44444444444444" fill="#ffffff"/><path d="M 241.11 17.22 A 17.22 17.22 0 0 1  258.33000000000004 0 L 241.11 17.22 A 17.22 17.22 0 0 0 258.33000000000004 0" fill="#cbb9a2"/><path d="M 258.33 17.22 A 17.22 17.22 0 0 1  275.54999999999995 0 L 258.33 17.22 A 17.22 17.22 0 0 0 275.54999999999995 0" fill="#fefefe"/><path d="M 241.11 17.22 A 17.22 17.22 0 0 1  258.33000000000004 34.44 L 241.11 17.22 A 17.22 17.22 0 0 0 258.33000000000004 34.44" fill="#c3af94"/><path d="M 258.33 17.22 A 17.22 17.22 0 0 1  275.54999999999995 34.44 L 258.33 17.22 A 17.22 17.22 0 0 0 275.54999999999995 34.44" fill="#fdfdfd"/><path d="M 275.56 0 A 34.44 34.44 0 0 1  310 34.44 L 275.56 0 A 34.44 34.44 0 0 0 310 34.44" fill="#e9e1d7"/><rect x="310" y="0" width="34.44444444444444" height="34.44444444444444" fill="#ffffff"/><path d="M 310 17.22 A 17.22 17.22 0 0 1  327.22 0 L 310 17.22 A 17.22 17.22 0 0 0 327.22 0" fill="#fefefe"/><path d="M 327.22 17.22 A 17.22 17.22 0 0 1  344.44000000000005 0 L 327.22 17.22 A 17.22 17.22 0 0 0 344.44000000000005 0" fill="#f6f2ee"/><path d="M 310 17.22 A 17.22 17.22 0 0 1  327.22 34.44 L 310 17.22 A 17.22 17.22 0 0 0 327.22 34.44" fill="#fefefe"/><path d="M 327.22 34.44 A 17.22 17.22 0 0 1  344.44000000000005 17.22 L 327.22 34.44 A 17.22 17.22 0 0 0 344.44000000000005 17.22" fill="#fdfdfd"/><path d="M 344.44 34.44 A 34.44 34.44 0 0 1  378.88 0 L 344.44 34.44 A 34.44 34.44 0 0 0 378.88 0" fill="#fcfcfc"/><rect x="378.88888888888886" y="0" width="34.44444444444444" height="34.44444444444444" fill="#ffffff"/><path d="M 378.89 17.22 A 17.22 17.22 0 0 1  396.11 0 L 378.89 17.22 A 17.22 17.22 0 0 0 396.11 0" fill="#fdfdfd"/><path d="M 396.11 17.22 A 17.22 17.22 0 0 1  413.33000000000004 0 L 396.11 17.22 A 17.22 17.22 0 0 0 413.33000000000004 0" fill="#f1ece6"/><path d="M 378.89 17.22 A 17.22 17.22 0 0 1  396.11 34.44 L 378.89 17.22 A 17.22 17.22 0 0 0 396.11 34.44" fill="#f6f3ef"/><path d="M 396.11 17.22 A 17.22 17.22 0 0 1  413.33000000000004 34.44 L 396.11 17.22 A 17.22 17.22 0 0 0 413.33000000000004 34.44" fill="#fdfdfd"/><rect x="0" y="34.44444444444444" width="34.44444444444444" height="34.44444444444444" fill="#ffffff"/><path d="M 0 34.44 A 17.22 17.22 0 0 1  17.22 51.66 L 0 34.44 A 17.22 17.22 0 0 0 17.22 51.66" fill="#eae3d9"/><path d="M 17.22 34.44 A 17.22 17.22 0 0 1  34.44 51.66 L 17.22 34.44 A 17.22 17.22 0 0 0 34.44 51.66" fill="#fcfcfa"/><path d="M 0 51.67 A 17.22 17.22 0 0 1  17.22 68.89 L 0 51.67 A 17.22 17.22 0 0 0 17.22 68.89" fill="#e5ddd2"/><path d="M 17.22 68.89 A 17.22 17.22 0 0 1  34.44 51.67 L 17.22 68.89 A 17.22 17.22 0 0 0 34.44 51.67" fill="#f4f0ec"/><path d="M 34.44 68.88 A 34.44 34.44 0 0 1  68.88 34.44 L 34.44 68.88 A 34.44 34.44 0 0 0 68.88 34.44" fill="#fefefe"/><rect x="68.88888888888889" y="34.44444444444444" width="34.44444444444444" height="34.44444444444444" fill="#ffffff"/><path d="M 68.89 51.66 A 17.22 17.22 0 0 1  86.11 34.44 L 68.89 51.66 A 17.22 17.22 0 0 0 86.11 34.44" fill="#fefefe"/><path d="M 86.11 34.44 A 17.22 17.22 0 0 1  103.33 51.66 L 86.11 34.44 A 17.22 17.22 0 0 0 103.33 51.66" fill="#c6b49a"/><path d="M 68.89 68.89 A 17.22 17.22 0 0 1  86.11 51.67 L 68.89 68.89 A 17.22 17.22 0 0 0 86.11 51.67" fill="#e2d9cc"/><path d="M 86.11 68.89 A 17.22 17.22 0 0 1  103.33 51.67 L 86.11 68.89 A 17.22 17.22 0 0 0 103.33 51.67" fill="#ccbba5"/><path d="M 103.33 34.44 A 34.44 34.44 0 0 1  137.76999999999998 68.88 L 103.33 34.44 A 34.44 34.44 0 0 0 137.76999999999998 68.88" fill="#c3af95"/><path d="M 137.78 68.88 A 34.44 34.44 0 0 1  172.22 34.44 L 137.78 68.88 A 34.44 34.44 0 0 0 172.22 34.44" fill="#e4dbcf"/><rect x="172.22222222222223" y="34.44444444444444" width="34.44444444444444" height="34.44444444444444" fill="#ffffff"/><path d="M 172.22 34.44 A 17.22 17.22 0 0 1  189.44 51.66 L 172.22 34.44 A 17.22 17.22 0 0 0 189.44 51.66" fill="#cbb9a2"/><path d="M 189.44 51.66 A 17.22 17.22 0 0 1  206.66 34.44 L 189.44 51.66 A 17.22 17.22 0 0 0 206.66 34.44" fill="#fefefe"/><path d="M 172.22 68.89 A 17.22 17.22 0 0 1  189.44 51.67 L 172.22 68.89 A 17.22 17.22 0 0 0 189.44 51.67" fill="#ffffff"/><path d="M 189.44 51.67 A 17.22 17.22 0 0 1  206.66 68.89 L 189.44 51.67 A 17.22 17.22 0 0 0 206.66 68.89" fill="#ffffff"/><rect x="206.66666666666666" y="34.44444444444444" width="34.44444444444444" height="34.44444444444444" fill="#ffffff"/><path d="M 206.67 34.44 A 17.22 17.22 0 0 1  223.89 51.66 L 206.67 34.44 A 17.22 17.22 0 0 0 223.89 51.66" fill="#ded3c5"/><path d="M 223.89 34.44 A 17.22 17.22 0 0 1  241.10999999999999 51.66 L 223.89 34.44 A 17.22 17.22 0 0 0 241.10999999999999 51.66" fill="#c4b096"/><path d="M 206.67 68.89 A 17.22 17.22 0 0 1  223.89 51.67 L 206.67 68.89 A 17.22 17.22 0 0 0 223.89 51.67" fill="#fcfcfc"/><path d="M 223.89 68.89 A 17.22 17.22 0 0 1  241.10999999999999 51.67 L 223.89 68.89 A 17.22 17.22 0 0 0 241.10999999999999 51.67" fill="#fdfdfd"/><rect x="241.1111111111111" y="34.44444444444444" width="34.44444444444444" height="34.44444444444444" fill="#ffffff"/><path d="M 241.11 34.44 A 17.22 17.22 0 0 1  258.33000000000004 51.66 L 241.11 34.44 A 17.22 17.22 0 0 0 258.33000000000004 51.66" fill="#f9f7f5"/><path d="M 258.33 34.44 A 17.22 17.22 0 0 1  275.54999999999995 51.66 L 258.33 34.44 A 17.22 17.22 0 0 0 275.54999999999995 51.66" fill="#f1ece6"/><path d="M 241.11 51.67 A 17.22 17.22 0 0 1  258.33000000000004 68.89 L 241.11 51.67 A 17.22 17.22 0 0 0 258.33000000000004 68.89" fill="#c3b095"/><path d="M 258.33 51.67 A 17.22 17.22 0 0 1  275.54999999999995 68.89 L 258.33 51.67 A 17.22 17.22 0 0 0 275.54999999999995 68.89" fill="#dfd5c7"/><path d="M 275.56 34.44 A 34.44 34.44 0 0 1  310 68.88 L 275.56 34.44 A 34.44 34.44 0 0 0 310 68.88" fill="#cbbaa3"/><path d="M 310 34.44 A 34.44 34.44 0 0 1  344.44 68.88 L 310 34.44 A 34.44 34.44 0 0 0 344.44 68.88" fill="#ffffff"/><path d="M 344.44 68.88 A 34.44 34.44 0 0 1  378.88 34.44 L 344.44 68.88 A 34.44 34.44 0 0 0 378.88 34.44" fill="#cbbaa2"/><path d="M 378.89 68.88 A 34.44 34.44 0 0 1  413.33 34.44 L 378.89 68.88 A 34.44 34.44 0 0 0 413.33 34.44" fill="#f4f0eb"/><rect x="0" y="68.88888888888889" width="34.44444444444444" height="34.44444444444444" fill="#ffffff"/><path d="M 0 86.11 A 17.22 17.22 0 0 1  17.22 68.89 L 0 86.11 A 17.22 17.22 0 0 0 17.22 68.89" fill="#fefefe"/><path d="M 17.22 68.89 A 17.22 17.22 0 0 1  34.44 86.11 L 17.22 68.89 A 17.22 17.22 0 0 0 34.44 86.11" fill="#fdfdfd"/><path d="M 0 103.33 A 17.22 17.22 0 0 1  17.22 86.11 L 0 103.33 A 17.22 17.22 0 0 0 17.22 86.11" fill="#c8b69e"/><path d="M 17.22 86.11 A 17.22 17.22 0 0 1  34.44 103.33 L 17.22 86.11 A 17.22 17.22 0 0 0 34.44 103.33" fill="#fefefe"/><path d="M 34.44 103.33 A 34.44 34.44 0 0 1  68.88 68.89 L 34.44 103.33 A 34.44 34.44 0 0 0 68.88 68.89" fill="#fdfdfd"/><rect x="68.88888888888889" y="68.88888888888889" width="34.44444444444444" height="34.44444444444444" fill="#ffffff"/><path d="M 68.89 68.89 A 17.22 17.22 0 0 1  86.11 86.11 L 68.89 68.89 A 17.22 17.22 0 0 0 86.11 86.11" fill="#d4c6b2"/><path d="M 86.11 86.11 A 17.22 17.22 0 0 1  103.33 68.89 L 86.11 86.11 A 17.22 17.22 0 0 0 103.33 68.89" fill="#fefefe"/><path d="M 68.89 86.11 A 17.22 17.22 0 0 1  86.11 103.33 L 68.89 86.11 A 17.22 17.22 0 0 0 86.11 103.33" fill="#fefefe"/><path d="M 86.11 103.33 A 17.22 17.22 0 0 1  103.33 86.11 L 86.11 103.33 A 17.22 17.22 0 0 0 103.33 86.11" fill="#d6c9b7"/><path d="M 103.33 103.33 A 34.44 34.44 0 0 1  137.76999999999998 68.89 L 103.33 103.33 A 34.44 34.44 0 0 0 137.76999999999998 68.89" fill="#fdfdfd"/><path d="M 137.78 68.89 A 34.44 34.44 0 0 1  172.22 103.33 L 137.78 68.89 A 34.44 34.44 0 0 0 172.22 103.33" fill="#fefefe"/><path d="M 172.22 103.33 A 34.44 34.44 0 0 1  206.66 68.89 L 172.22 103.33 A 34.44 34.44 0 0 0 206.66 68.89" fill="#faf8f6"/><path d="M 206.67 103.33 A 34.44 34.44 0 0 1  241.10999999999999 68.89 L 206.67 103.33 A 34.44 34.44 0 0 0 241.10999999999999 68.89" fill="#faf9f7"/><path d="M 241.11 103.33 A 34.44 34.44 0 0 1  275.55 68.89 L 241.11 103.33 A 34.44 34.44 0 0 0 275.55 68.89" fill="#fdfdfd"/><path d="M 275.56 68.89 A 34.44 34.44 0 0 1  310 103.33 L 275.56 68.89 A 34.44 34.44 0 0 0 310 103.33" fill="#fdfdfd"/><rect x="310" y="68.88888888888889" width="34.44444444444444" height="34.44444444444444" fill="#ffffff"/><path d="M 310 86.11 A 17.22 17.22 0 0 1  327.22 68.89 L 310 86.11 A 17.22 17.22 0 0 0 327.22 68.89" fill="#fefefe"/><path d="M 327.22 68.89 A 17.22 17.22 0 0 1  344.44000000000005 86.11 L 327.22 68.89 A 17.22 17.22 0 0 0 344.44000000000005 86.11" fill="#fdfdfd"/><path d="M 310 86.11 A 17.22 17.22 0 0 1  327.22 103.33 L 310 86.11 A 17.22 17.22 0 0 0 327.22 103.33" fill="#ffffff"/><path d="M 327.22 86.11 A 17.22 17.22 0 0 1  344.44000000000005 103.33 L 327.22 86.11 A 17.22 17.22 0 0 0 344.44000000000005 103.33" fill="#e3dacd"/><path d="M 344.44 68.89 A 34.44 34.44 0 0 1  378.88 103.33 L 344.44 68.89 A 34.44 34.44 0 0 0 378.88 103.33" fill="#fdfdfd"/><path d="M 378.89 68.89 A 34.44 34.44 0 0 1  413.33 103.33 L 378.89 68.89 A 34.44 34.44 0 0 0 413.33 103.33" fill="#ffffff"/><path d="M 0 103.33 A 34.44 34.44 0 0 1  34.44 137.76999999999998 L 0 103.33 A 34.44 34.44 0 0 0 34.44 137.76999999999998" fill="#cbbaa4"/><path d="M 34.44 137.76999999999998 A 34.44 34.44 0 0 1  68.88 103.33 L 34.44 137.76999999999998 A 34.44 34.44 0 0 0 68.88 103.33" fill="#fefefe"/><rect x="68.88888888888889" y="103.33333333333333" width="34.44444444444444" height="34.44444444444444" fill="#ffffff"/><path d="M 68.89 103.33 A 17.22 17.22 0 0 1  86.11 120.55 L 68.89 103.33 A 17.22 17.22 0 0 0 86.11 120.55" fill="#fefdfc"/><path d="M 86.11 103.33 A 17.22 17.22 0 0 1  103.33 120.55 L 86.11 103.33 A 17.22 17.22 0 0 0 103.33 120.55" fill="#fefefe"/><path d="M 68.89 120.56 A 17.22 17.22 0 0 1  86.11 137.78 L 68.89 120.56 A 17.22 17.22 0 0 0 86.11 137.78" fill="#ffffff"/><path d="M 86.11 120.56 A 17.22 17.22 0 0 1  103.33 137.78 L 86.11 120.56 A 17.22 17.22 0 0 0 103.33 137.78" fill="#fdfdfd"/><path d="M 103.33 103.33 A 34.44 34.44 0 0 1  137.76999999999998 137.76999999999998 L 103.33 103.33 A 34.44 34.44 0 0 0 137.76999999999998 137.76999999999998" fill="#f2ede7"/><path d="M 137.78 137.76999999999998 A 34.44 34.44 0 0 1  172.22 103.33 L 137.78 137.76999999999998 A 34.44 34.44 0 0 0 172.22 103.33" fill="#ffffff"/><path d="M 172.22 103.33 A 34.44 34.44 0 0 1  206.66 137.76999999999998 L 172.22 103.33 A 34.44 34.44 0 0 0 206.66 137.76999999999998" fill="#f3efea"/><path d="M 206.67 103.33 A 34.44 34.44 0 0 1  241.10999999999999 137.76999999999998 L 206.67 103.33 A 34.44 34.44 0 0 0 241.10999999999999 137.76999999999998" fill="#fdfdfd"/><path d="M 241.11 137.76999999999998 A 34.44 34.44 0 0 1  275.55 103.33 L 241.11 137.76999999999998 A 34.44 34.44 0 0 0 275.55 103.33" fill="#eee9e2"/><path d="M 275.56 103.33 A 34.44 34.44 0 0 1  310 137.76999999999998 L 275.56 103.33 A 34.44 34.44 0 0 0 310 137.76999999999998" fill="#ffffff"/><path d="M 310 103.33 A 34.44 34.44 0 0 1  344.44 137.76999999999998 L 310 103.33 A 34.44 34.44 0 0 0 344.44 137.76999999999998" fill="#e8e0d6"/><path d="M 344.44 103.33 A 34.44 34.44 0 0 1  378.88 137.76999999999998 L 344.44 103.33 A 34.44 34.44 0 0 0 378.88 137.76999999999998" fill="#cdbca6"/><path d="M 378.89 103.33 A 34.44 34.44 0 0 1  413.33 137.76999999999998 L 378.89 103.33 A 34.44 34.44 0 0 0 413.33 137.76999999999998" fill="#fefefe"/><path d="M 0 137.78 A 34.44 34.44 0 0 1  34.44 172.22 L 0 137.78 A 34.44 34.44 0 0 0 34.44 172.22" fill="#d1c1ad"/><rect x="34.44444444444444" y="137.77777777777777" width="34.44444444444444" height="34.44444444444444" fill="#ffffff"/><path d="M 34.44 137.78 A 17.22 17.22 0 0 1  51.66 155 L 34.44 137.78 A 17.22 17.22 0 0 0 51.66 155" fill="#d4c6b3"/><path d="M 51.67 137.78 A 17.22 17.22 0 0 1  68.89 155 L 51.67 137.78 A 17.22 17.22 0 0 0 68.89 155" fill="#cfbfa9"/><path d="M 34.44 172.22 A 17.22 17.22 0 0 1  51.66 155 L 34.44 172.22 A 17.22 17.22 0 0 0 51.66 155" fill="#c4b197"/><path d="M 51.67 172.22 A 17.22 17.22 0 0 1  68.89 155 L 51.67 172.22 A 17.22 17.22 0 0 0 68.89 155" fill="#e1d7ca"/><path d="M 68.89 137.78 A 34.44 34.44 0 0 1  103.33 172.22 L 68.89 137.78 A 34.44 34.44 0 0 0 103.33 172.22" fill="#efe9e2"/><path d="M 103.33 137.78 A 34.44 34.44 0 0 1  137.76999999999998 172.22 L 103.33 137.78 A 34.44 34.44 0 0 0 137.76999999999998 172.22" fill="#fefefe"/><path d="M 137.78 137.78 A 34.44 34.44 0 0 1  172.22 172.22 L 137.78 137.78 A 34.44 34.44 0 0 0 172.22 172.22" fill="#eae4db"/><path d="M 172.22 137.78 A 34.44 34.44 0 0 1  206.66 172.22 L 172.22 137.78 A 34.44 34.44 0 0 0 206.66 172.22" fill="#fdfdfd"/><path d="M 206.67 172.22 A 34.44 34.44 0 0 1  241.10999999999999 137.78 L 206.67 172.22 A 34.44 34.44 0 0 0 241.10999999999999 137.78" fill="#d6c8b6"/><path d="M 241.11 172.22 A 34.44 34.44 0 0 1  275.55 137.78 L 241.11 172.22 A 34.44 34.44 0 0 0 275.55 137.78" fill="#ece6dd"/><path d="M 275.56 137.78 A 34.44 34.44 0 0 1  310 172.22 L 275.56 137.78 A 34.44 34.44 0 0 0 310 172.22" fill="#e0d6c9"/><rect x="310" y="137.77777777777777" width="34.44444444444444" height="34.44444444444444" fill="#ffffff"/><path d="M 310 137.78 A 17.22 17.22 0 0 1  327.22 155 L 310 137.78 A 17.22 17.22 0 0 0 327.22 155" fill="#fdfdfd"/><path d="M 327.22 137.78 A 17.22 17.22 0 0 1  344.44000000000005 155 L 327.22 137.78 A 17.22 17.22 0 0 0 344.44000000000005 155" fill="#f0ebe4"/><path d="M 310 172.22 A 17.22 17.22 0 0 1  327.22 155 L 310 172.22 A 17.22 17.22 0 0 0 327.22 155" fill="#fdfdfd"/><path d="M 327.22 155 A 17.22 17.22 0 0 1  344.44000000000005 172.22 L 327.22 155 A 17.22 17.22 0 0 0 344.44000000000005 172.22" fill="#f2eee8"/><path d="M 344.44 172.22 A 34.44 34.44 0 0 1  378.88 137.78 L 344.44 172.22 A 34.44 34.44 0 0 0 378.88 137.78" fill="#ffffff"/><path d="M 378.89 172.22 A 34.44 34.44 0 0 1  413.33 137.78 L 378.89 172.22 A 34.44 34.44 0 0 0 413.33 137.78" fill="#fefefe"/><path d="M 0 206.66 A 34.44 34.44 0 0 1  34.44 172.22 L 0 206.66 A 34.44 34.44 0 0 0 34.44 172.22" fill="#fcfcfc"/><path d="M 34.44 206.66 A 34.44 34.44 0 0 1  68.88 172.22 L 34.44 206.66 A 34.44 34.44 0 0 0 68.88 172.22" fill="#fcfcfc"/><rect x="68.88888888888889" y="172.22222222222223" width="34.44444444444444" height="34.44444444444444" fill="#ffffff"/><path d="M 68.89 172.22 A 17.22 17.22 0 0 1  86.11 189.44 L 68.89 172.22 A 17.22 17.22 0 0 0 86.11 189.44" fill="#faf9f7"/><path d="M 86.11 172.22 A 17.22 17.22 0 0 1  103.33 189.44 L 86.11 172.22 A 17.22 17.22 0 0 0 103.33 189.44" fill="#d8cbba"/><path d="M 68.89 189.44 A 17.22 17.22 0 0 1  86.11 206.66 L 68.89 189.44 A 17.22 17.22 0 0 0 86.11 206.66" fill="#fcfcfc"/><path d="M 86.11 189.44 A 17.22 17.22 0 0 1  103.33 206.66 L 86.11 189.44 A 17.22 17.22 0 0 0 103.33 206.66" fill="#fefefe"/><rect x="103.33333333333333" y="172.22222222222223" width="34.44444444444444" height="34.44444444444444" fill="#ffffff"/><path d="M 103.33 172.22 A 17.22 17.22 0 0 1  120.55 189.44 L 103.33 172.22 A 17.22 17.22 0 0 0 120.55 189.44" fill="#fdfdfd"/><path d="M 120.56 172.22 A 17.22 17.22 0 0 1  137.78 189.44 L 120.56 172.22 A 17.22 17.22 0 0 0 137.78 189.44" fill="#fffefe"/><path d="M 103.33 189.44 A 17.22 17.22 0 0 1  120.55 206.66 L 103.33 189.44 A 17.22 17.22 0 0 0 120.55 206.66" fill="#fdfdfd"/><path d="M 120.56 206.66 A 17.22 17.22 0 0 1  137.78 189.44 L 120.56 206.66 A 17.22 17.22 0 0 0 137.78 189.44" fill="#fefefe"/><rect x="137.77777777777777" y="172.22222222222223" width="34.44444444444444" height="34.44444444444444" fill="#ffffff"/><path d="M 137.78 172.22 A 17.22 17.22 0 0 1  155 189.44 L 137.78 172.22 A 17.22 17.22 0 0 0 155 189.44" fill="#d1c1ad"/><path d="M 155 172.22 A 17.22 17.22 0 0 1  172.22 189.44 L 155 172.22 A 17.22 17.22 0 0 0 172.22 189.44" fill="#c4b096"/><path d="M 137.78 189.44 A 17.22 17.22 0 0 1  155 206.66 L 137.78 189.44 A 17.22 17.22 0 0 0 155 206.66" fill="#ffffff"/><path d="M 155 206.66 A 17.22 17.22 0 0 1  172.22 189.44 L 155 206.66 A 17.22 17.22 0 0 0 172.22 189.44" fill="#d0c1ad"/><rect x="172.22222222222223" y="172.22222222222223" width="34.44444444444444" height="34.44444444444444" fill="#ffffff"/><path d="M 172.22 172.22 A 17.22 17.22 0 0 1  189.44 189.44 L 172.22 172.22 A 17.22 17.22 0 0 0 189.44 189.44" fill="#fefefe"/><path d="M 189.44 172.22 A 17.22 17.22 0 0 1  206.66 189.44 L 189.44 172.22 A 17.22 17.22 0 0 0 206.66 189.44" fill="#d0c1ac"/><path d="M 172.22 189.44 A 17.22 17.22 0 0 1  189.44 206.66 L 172.22 189.44 A 17.22 17.22 0 0 0 189.44 206.66" fill="#cdbca6"/><path d="M 189.44 189.44 A 17.22 17.22 0 0 1  206.66 206.66 L 189.44 189.44 A 17.22 17.22 0 0 0 206.66 206.66" fill="#dacebd"/><path d="M 206.67 172.22 A 34.44 34.44 0 0 1  241.10999999999999 206.66 L 206.67 172.22 A 34.44 34.44 0 0 0 241.10999999999999 206.66" fill="#dfd4c6"/><path d="M 241.11 206.66 A 34.44 34.44 0 0 1  275.55 172.22 L 241.11 206.66 A 34.44 34.44 0 0 0 275.55 172.22" fill="#dfd5c7"/><rect x="275.55555555555554" y="172.22222222222223" width="34.44444444444444" height="34.44444444444444" fill="#ffffff"/><path d="M 275.56 189.44 A 17.22 17.22 0 0 1  292.78 172.22 L 275.56 189.44 A 17.22 17.22 0 0 0 292.78 172.22" fill="#c8b59d"/><path d="M 292.78 189.44 A 17.22 17.22 0 0 1  310 172.22 L 292.78 189.44 A 17.22 17.22 0 0 0 310 172.22" fill="#cebea9"/><path d="M 275.56 189.44 A 17.22 17.22 0 0 1  292.78 206.66 L 275.56 189.44 A 17.22 17.22 0 0 0 292.78 206.66" fill="#fcfcfc"/><path d="M 292.78 189.44 A 17.22 17.22 0 0 1  310 206.66 L 292.78 189.44 A 17.22 17.22 0 0 0 310 206.66" fill="#c5b299"/><rect x="310" y="172.22222222222223" width="34.44444444444444" height="34.44444444444444" fill="#ffffff"/><path d="M 310 189.44 A 17.22 17.22 0 0 1  327.22 172.22 L 310 189.44 A 17.22 17.22 0 0 0 327.22 172.22" fill="#e7dfd5"/><path d="M 327.22 189.44 A 17.22 17.22 0 0 1  344.44000000000005 172.22 L 327.22 189.44 A 17.22 17.22 0 0 0 344.44000000000005 172.22" fill="#d3c4b1"/><path d="M 310 206.66 A 17.22 17.22 0 0 1  327.22 189.44 L 310 206.66 A 17.22 17.22 0 0 0 327.22 189.44" fill="#eee8e1"/><path d="M 327.22 206.66 A 17.22 17.22 0 0 1  344.44000000000005 189.44 L 327.22 206.66 A 17.22 17.22 0 0 0 344.44000000000005 189.44" fill="#e5ddd1"/><path d="M 344.44 172.22 A 34.44 34.44 0 0 1  378.88 206.66 L 344.44 172.22 A 34.44 34.44 0 0 0 378.88 206.66" fill="#ffffff"/><path d="M 378.89 206.66 A 34.44 34.44 0 0 1  413.33 172.22 L 378.89 206.66 A 34.44 34.44 0 0 0 413.33 172.22" fill="#e9e2d8"/><rect x="0" y="206.66666666666666" width="34.44444444444444" height="34.44444444444444" fill="#ffffff"/><path d="M 0 206.67 A 17.22 17.22 0 0 1  17.22 223.89 L 0 206.67 A 17.22 17.22 0 0 0 17.22 223.89" fill="#ffffff"/><path d="M 17.22 206.67 A 17.22 17.22 0 0 1  34.44 223.89 L 17.22 206.67 A 17.22 17.22 0 0 0 34.44 223.89" fill="#ddd2c4"/><path d="M 0 241.10999999999999 A 17.22 17.22 0 0 1  17.22 223.89 L 0 241.10999999999999 A 17.22 17.22 0 0 0 17.22 223.89" fill="#c3af95"/><path d="M 17.22 223.89 A 17.22 17.22 0 0 1  34.44 241.10999999999999 L 17.22 223.89 A 17.22 17.22 0 0 0 34.44 241.10999999999999" fill="#e6ded4"/><path d="M 34.44 241.10999999999999 A 34.44 34.44 0 0 1  68.88 206.67 L 34.44 241.10999999999999 A 34.44 34.44 0 0 0 68.88 206.67" fill="#e6ddd2"/><path d="M 68.89 241.10999999999999 A 34.44 34.44 0 0 1  103.33 206.67 L 68.89 241.10999999999999 A 34.44 34.44 0 0 0 103.33 206.67" fill="#d4c6b3"/><rect x="103.33333333333333" y="206.66666666666666" width="34.44444444444444" height="34.44444444444444" fill="#ffffff"/><path d="M 103.33 206.67 A 17.22 17.22 0 0 1  120.55 223.89 L 103.33 206.67 A 17.22 17.22 0 0 0 120.55 223.89" fill="#ffffff"/><path d="M 120.56 223.89 A 17.22 17.22 0 0 1  137.78 206.67 L 120.56 223.89 A 17.22 17.22 0 0 0 137.78 206.67" fill="#e4dbcf"/><path d="M 103.33 223.89 A 17.22 17.22 0 0 1  120.55 241.10999999999999 L 103.33 223.89 A 17.22 17.22 0 0 0 120.55 241.10999999999999" fill="#d8cbba"/><path d="M 120.56 241.10999999999999 A 17.22 17.22 0 0 1  137.78 223.89 L 120.56 241.10999999999999 A 17.22 17.22 0 0 0 137.78 223.89" fill="#fcfcfc"/><path d="M 137.78 206.67 A 34.44 34.44 0 0 1  172.22 241.10999999999999 L 137.78 206.67 A 34.44 34.44 0 0 0 172.22 241.10999999999999" fill="#fdfdfd"/><path d="M 172.22 241.10999999999999 A 34.44 34.44 0 0 1  206.66 206.67 L 172.22 241.10999999999999 A 34.44 34.44 0 0 0 206.66 206.67" fill="#fefefe"/><path d="M 206.67 206.67 A 34.44 34.44 0 0 1  241.10999999999999 241.10999999999999 L 206.67 206.67 A 34.44 34.44 0 0 0 241.10999999999999 241.10999999999999" fill="#ffffff"/><path d="M 241.11 206.67 A 34.44 34.44 0 0 1  275.55 241.10999999999999 L 241.11 206.67 A 34.44 34.44 0 0 0 275.55 241.10999999999999" fill="#fdfdfd"/><rect x="275.55555555555554" y="206.66666666666666" width="34.44444444444444" height="34.44444444444444" fill="#ffffff"/><path d="M 275.56 223.89 A 17.22 17.22 0 0 1  292.78 206.67 L 275.56 223.89 A 17.22 17.22 0 0 0 292.78 206.67" fill="#ffffff"/><path d="M 292.78 223.89 A 17.22 17.22 0 0 1  310 206.67 L 292.78 223.89 A 17.22 17.22 0 0 0 310 206.67" fill="#f5f2ee"/><path d="M 275.56 241.10999999999999 A 17.22 17.22 0 0 1  292.78 223.89 L 275.56 241.10999999999999 A 17.22 17.22 0 0 0 292.78 223.89" fill="#ffffff"/><path d="M 292.78 223.89 A 17.22 17.22 0 0 1  310 241.10999999999999 L 292.78 223.89 A 17.22 17.22 0 0 0 310 241.10999999999999" fill="#ffffff"/><path d="M 310 206.67 A 34.44 34.44 0 0 1  344.44 241.10999999999999 L 310 206.67 A 34.44 34.44 0 0 0 344.44 241.10999999999999" fill="#fefefe"/><path d="M 344.44 241.10999999999999 A 34.44 34.44 0 0 1  378.88 206.67 L 344.44 241.10999999999999 A 34.44 34.44 0 0 0 378.88 206.67" fill="#dcd1c2"/><rect x="378.88888888888886" y="206.66666666666666" width="34.44444444444444" height="34.44444444444444" fill="#ffffff"/><path d="M 378.89 206.67 A 17.22 17.22 0 0 1  396.11 223.89 L 378.89 206.67 A 17.22 17.22 0 0 0 396.11 223.89" fill="#fbf9f7"/><path d="M 396.11 223.89 A 17.22 17.22 0 0 1  413.33000000000004 206.67 L 396.11 223.89 A 17.22 17.22 0 0 0 413.33000000000004 206.67" fill="#ffffff"/><path d="M 378.89 223.89 A 17.22 17.22 0 0 1  396.11 241.10999999999999 L 378.89 223.89 A 17.22 17.22 0 0 0 396.11 241.10999999999999" fill="#fcfcfc"/><path d="M 396.11 241.10999999999999 A 17.22 17.22 0 0 1  413.33000000000004 223.89 L 396.11 241.10999999999999 A 17.22 17.22 0 0 0 413.33000000000004 223.89" fill="#fcfcfc"/><path d="M 0 275.55 A 34.44 34.44 0 0 1  34.44 241.11 L 0 275.55 A 34.44 34.44 0 0 0 34.44 241.11" fill="#ded4c5"/><rect x="34.44444444444444" y="241.1111111111111" width="34.44444444444444" height="34.44444444444444" fill="#ffffff"/><path d="M 34.44 241.11 A 17.22 17.22 0 0 1  51.66 258.33000000000004 L 34.44 241.11 A 17.22 17.22 0 0 0 51.66 258.33000000000004" fill="#c7b49b"/><path d="M 51.67 258.33000000000004 A 17.22 17.22 0 0 1  68.89 241.11 L 51.67 258.33000000000004 A 17.22 17.22 0 0 0 68.89 241.11" fill="#cdbca6"/><path d="M 34.44 258.33 A 17.22 17.22 0 0 1  51.66 275.54999999999995 L 34.44 258.33 A 17.22 17.22 0 0 0 51.66 275.54999999999995" fill="#ccbba4"/><path d="M 51.67 258.33 A 17.22 17.22 0 0 1  68.89 275.54999999999995 L 51.67 258.33 A 17.22 17.22 0 0 0 68.89 275.54999999999995" fill="#fdfcfb"/><path d="M 68.89 241.11 A 34.44 34.44 0 0 1  103.33 275.55 L 68.89 241.11 A 34.44 34.44 0 0 0 103.33 275.55" fill="#f6f3ef"/><rect x="103.33333333333333" y="241.1111111111111" width="34.44444444444444" height="34.44444444444444" fill="#ffffff"/><path d="M 103.33 241.11 A 17.22 17.22 0 0 1  120.55 258.33000000000004 L 103.33 241.11 A 17.22 17.22 0 0 0 120.55 258.33000000000004" fill="#fefefe"/><path d="M 120.56 258.33000000000004 A 17.22 17.22 0 0 1  137.78 241.11 L 120.56 258.33000000000004 A 17.22 17.22 0 0 0 137.78 241.11" fill="#fdfdfd"/><path d="M 103.33 275.54999999999995 A 17.22 17.22 0 0 1  120.55 258.33 L 103.33 275.54999999999995 A 17.22 17.22 0 0 0 120.55 258.33" fill="#d7c9b8"/><path d="M 120.56 275.54999999999995 A 17.22 17.22 0 0 1  137.78 258.33 L 120.56 275.54999999999995 A 17.22 17.22 0 0 0 137.78 258.33" fill="#fcfcfc"/><path d="M 137.78 275.55 A 34.44 34.44 0 0 1  172.22 241.11 L 137.78 275.55 A 34.44 34.44 0 0 0 172.22 241.11" fill="#fdfdfd"/><rect x="172.22222222222223" y="241.1111111111111" width="34.44444444444444" height="34.44444444444444" fill="#ffffff"/><path d="M 172.22 258.33000000000004 A 17.22 17.22 0 0 1  189.44 241.11 L 172.22 258.33000000000004 A 17.22 17.22 0 0 0 189.44 241.11" fill="#e4dbcf"/><path d="M 189.44 241.11 A 17.22 17.22 0 0 1  206.66 258.33000000000004 L 189.44 241.11 A 17.22 17.22 0 0 0 206.66 258.33000000000004" fill="#fdfdfd"/><path d="M 172.22 275.54999999999995 A 17.22 17.22 0 0 1  189.44 258.33 L 172.22 275.54999999999995 A 17.22 17.22 0 0 0 189.44 258.33" fill="#f7f5f1"/><path d="M 189.44 258.33 A 17.22 17.22 0 0 1  206.66 275.54999999999995 L 189.44 258.33 A 17.22 17.22 0 0 0 206.66 275.54999999999995" fill="#d8cbba"/><path d="M 206.67 241.11 A 34.44 34.44 0 0 1  241.10999999999999 275.55 L 206.67 241.11 A 34.44 34.44 0 0 0 241.10999999999999 275.55" fill="#c5b198"/><path d="M 241.11 275.55 A 34.44 34.44 0 0 1  275.55 241.11 L 241.11 275.55 A 34.44 34.44 0 0 0 275.55 241.11" fill="#fcfcfc"/><rect x="275.55555555555554" y="241.1111111111111" width="34.44444444444444" height="34.44444444444444" fill="#ffffff"/><path d="M 275.56 258.33000000000004 A 17.22 17.22 0 0 1  292.78 241.11 L 275.56 258.33000000000004 A 17.22 17.22 0 0 0 292.78 241.11" fill="#e0d6c8"/><path d="M 292.78 241.11 A 17.22 17.22 0 0 1  310 258.33000000000004 L 292.78 241.11 A 17.22 17.22 0 0 0 310 258.33000000000004" fill="#fefefe"/><path d="M 275.56 258.33 A 17.22 17.22 0 0 1  292.78 275.54999999999995 L 275.56 258.33 A 17.22 17.22 0 0 0 292.78 275.54999999999995" fill="#fefefe"/><path d="M 292.78 275.54999999999995 A 17.22 17.22 0 0 1  310 258.33 L 292.78 275.54999999999995 A 17.22 17.22 0 0 0 310 258.33" fill="#fdfdfd"/><path d="M 310 275.55 A 34.44 34.44 0 0 1  344.44 241.11 L 310 275.55 A 34.44 34.44 0 0 0 344.44 241.11" fill="#e1d8ca"/><path d="M 344.44 275.55 A 34.44 34.44 0 0 1  378.88 241.11 L 344.44 275.55 A 34.44 34.44 0 0 0 378.88 241.11" fill="#fcfcfc"/><path d="M 378.89 241.11 A 34.44 34.44 0 0 1  413.33 275.55 L 378.89 241.11 A 34.44 34.44 0 0 0 413.33 275.55" fill="#fefefe"/><path d="M 0 275.56 A 34.44 34.44 0 0 1  34.44 310 L 0 275.56 A 34.44 34.44 0 0 0 34.44 310" fill="#c3af94"/><path d="M 34.44 275.56 A 34.44 34.44 0 0 1  68.88 310 L 34.44 275.56 A 34.44 34.44 0 0 0 68.88 310" fill="#eae4db"/><path d="M 68.89 310 A 34.44 34.44 0 0 1  103.33 275.56 L 68.89 310 A 34.44 34.44 0 0 0 103.33 275.56" fill="#fdfdfd"/><path d="M 103.33 310 A 34.44 34.44 0 0 1  137.76999999999998 275.56 L 103.33 310 A 34.44 34.44 0 0 0 137.76999999999998 275.56" fill="#cdbda7"/><path d="M 137.78 275.56 A 34.44 34.44 0 0 1  172.22 310 L 137.78 275.56 A 34.44 34.44 0 0 0 172.22 310" fill="#ffffff"/><path d="M 172.22 310 A 34.44 34.44 0 0 1  206.66 275.56 L 172.22 310 A 34.44 34.44 0 0 0 206.66 275.56" fill="#cfbfaa"/><path d="M 206.67 275.56 A 34.44 34.44 0 0 1  241.10999999999999 310 L 206.67 275.56 A 34.44 34.44 0 0 0 241.10999999999999 310" fill="#fefefe"/><path d="M 241.11 275.56 A 34.44 34.44 0 0 1  275.55 310 L 241.11 275.56 A 34.44 34.44 0 0 0 275.55 310" fill="#ffffff"/><path d="M 275.56 275.56 A 34.44 34.44 0 0 1  310 310 L 275.56 275.56 A 34.44 34.44 0 0 0 310 310" fill="#c6b49b"/><rect x="310" y="275.55555555555554" width="34.44444444444444" height="34.44444444444444" fill="#ffffff"/><path d="M 310 275.56 A 17.22 17.22 0 0 1  327.22 292.78 L 310 275.56 A 17.22 17.22 0 0 0 327.22 292.78" fill="#fefefe"/><path d="M 327.22 292.78 A 17.22 17.22 0 0 1  344.44000000000005 275.56 L 327.22 292.78 A 17.22 17.22 0 0 0 344.44000000000005 275.56" fill="#d1c2ae"/><path d="M 310 292.78 A 17.22 17.22 0 0 1  327.22 310 L 310 292.78 A 17.22 17.22 0 0 0 327.22 310" fill="#fefdfc"/><path d="M 327.22 292.78 A 17.22 17.22 0 0 1  344.44000000000005 310 L 327.22 292.78 A 17.22 17.22 0 0 0 344.44000000000005 310" fill="#e4dbcf"/><path d="M 344.44 310 A 34.44 34.44 0 0 1  378.88 275.56 L 344.44 310 A 34.44 34.44 0 0 0 378.88 275.56" fill="#ffffff"/><path d="M 378.89 310 A 34.44 34.44 0 0 1  413.33 275.56 L 378.89 310 A 34.44 34.44 0 0 0 413.33 275.56" fill="#d0c0ab"/><path d="M 0 310 A 34.44 34.44 0 0 1  34.44 344.44 L 0 310 A 34.44 34.44 0 0 0 34.44 344.44" fill="#fdfdfd"/><rect x="34.44444444444444" y="310" width="34.44444444444444" height="34.44444444444444" fill="#ffffff"/><path d="M 34.44 327.22 A 17.22 17.22 0 0 1  51.66 310 L 34.44 327.22 A 17.22 17.22 0 0 0 51.66 310" fill="#d2c4b0"/><path d="M 51.67 310 A 17.22 17.22 0 0 1  68.89 327.22 L 51.67 310 A 17.22 17.22 0 0 0 68.89 327.22" fill="#e9e2d9"/><path d="M 34.44 344.44000000000005 A 17.22 17.22 0 0 1  51.66 327.22 L 34.44 344.44000000000005 A 17.22 17.22 0 0 0 51.66 327.22" fill="#f8f5f2"/><path d="M 51.67 327.22 A 17.22 17.22 0 0 1  68.89 344.44000000000005 L 51.67 327.22 A 17.22 17.22 0 0 0 68.89 344.44000000000005" fill="#fcfcfc"/><path d="M 68.89 344.44 A 34.44 34.44 0 0 1  103.33 310 L 68.89 344.44 A 34.44 34.44 0 0 0 103.33 310" fill="#d3c4b0"/><path d="M 103.33 310 A 34.44 34.44 0 0 1  137.76999999999998 344.44 L 103.33 310 A 34.44 34.44 0 0 0 137.76999999999998 344.44" fill="#ffffff"/><path d="M 137.78 344.44 A 34.44 34.44 0 0 1  172.22 310 L 137.78 344.44 A 34.44 34.44 0 0 0 172.22 310" fill="#cebfa9"/><rect x="172.22222222222223" y="310" width="34.44444444444444" height="34.44444444444444" fill="#ffffff"/><path d="M 172.22 327.22 A 17.22 17.22 0 0 1  189.44 310 L 172.22 327.22 A 17.22 17.22 0 0 0 189.44 310" fill="#f2eee8"/><path d="M 189.44 310 A 17.22 17.22 0 0 1  206.66 327.22 L 189.44 310 A 17.22 17.22 0 0 0 206.66 327.22" fill="#eae3d9"/><path d="M 172.22 327.22 A 17.22 17.22 0 0 1  189.44 344.44000000000005 L 172.22 327.22 A 17.22 17.22 0 0 0 189.44 344.44000000000005" fill="#fefefe"/><path d="M 189.44 327.22 A 17.22 17.22 0 0 1  206.66 344.44000000000005 L 189.44 327.22 A 17.22 17.22 0 0 0 206.66 344.44000000000005" fill="#e7dfd5"/><path d="M 206.67 344.44 A 34.44 34.44 0 0 1  241.10999999999999 310 L 206.67 344.44 A 34.44 34.44 0 0 0 241.10999999999999 310" fill="#fdfdfd"/><path d="M 241.11 310 A 34.44 34.44 0 0 1  275.55 344.44 L 241.11 310 A 34.44 34.44 0 0 0 275.55 344.44" fill="#ffffff"/><path d="M 275.56 310 A 34.44 34.44 0 0 1  310 344.44 L 275.56 310 A 34.44 34.44 0 0 0 310 344.44" fill="#ebe5dc"/><path d="M 310 310 A 34.44 34.44 0 0 1  344.44 344.44 L 310 310 A 34.44 34.44 0 0 0 344.44 344.44" fill="#e7dfd5"/><path d="M 344.44 310 A 34.44 34.44 0 0 1  378.88 344.44 L 344.44 310 A 34.44 34.44 0 0 0 378.88 344.44" fill="#fcfcfc"/><rect x="378.88888888888886" y="310" width="34.44444444444444" height="34.44444444444444" fill="#ffffff"/><path d="M 378.89 327.22 A 17.22 17.22 0 0 1  396.11 310 L 378.89 327.22 A 17.22 17.22 0 0 0 396.11 310" fill="#d3c4b0"/><path d="M 396.11 327.22 A 17.22 17.22 0 0 1  413.33000000000004 310 L 396.11 327.22 A 17.22 17.22 0 0 0 413.33000000000004 310" fill="#eee9e1"/><path d="M 378.89 344.44000000000005 A 17.22 17.22 0 0 1  396.11 327.22 L 378.89 344.44000000000005 A 17.22 17.22 0 0 0 396.11 327.22" fill="#fbfaf8"/><path d="M 396.11 344.44000000000005 A 17.22 17.22 0 0 1  413.33000000000004 327.22 L 396.11 344.44000000000005 A 17.22 17.22 0 0 0 413.33000000000004 327.22" fill="#fefefe"/><rect x="0" y="344.44444444444446" width="34.44444444444444" height="34.44444444444444" fill="#ffffff"/><path d="M 0 344.44 A 17.22 17.22 0 0 1  17.22 361.65999999999997 L 0 344.44 A 17.22 17.22 0 0 0 17.22 361.65999999999997" fill="#fdfdfd"/><path d="M 17.22 361.65999999999997 A 17.22 17.22 0 0 1  34.44 344.44 L 17.22 361.65999999999997 A 17.22 17.22 0 0 0 34.44 344.44" fill="#d1c2ad"/><path d="M 0 378.89 A 17.22 17.22 0 0 1  17.22 361.67 L 0 378.89 A 17.22 17.22 0 0 0 17.22 361.67" fill="#fefefe"/><path d="M 17.22 378.89 A 17.22 17.22 0 0 1  34.44 361.67 L 17.22 378.89 A 17.22 17.22 0 0 0 34.44 361.67" fill="#fefefe"/><path d="M 34.44 344.44 A 34.44 34.44 0 0 1  68.88 378.88 L 34.44 344.44 A 34.44 34.44 0 0 0 68.88 378.88" fill="#ece5dd"/><path d="M 68.89 344.44 A 34.44 34.44 0 0 1  103.33 378.88 L 68.89 344.44 A 34.44 34.44 0 0 0 103.33 378.88" fill="#e6ded2"/><path d="M 103.33 378.88 A 34.44 34.44 0 0 1  137.76999999999998 344.44 L 103.33 378.88 A 34.44 34.44 0 0 0 137.76999999999998 344.44" fill="#ece6de"/><rect x="137.77777777777777" y="344.44444444444446" width="34.44444444444444" height="34.44444444444444" fill="#ffffff"/><path d="M 137.78 361.65999999999997 A 17.22 17.22 0 0 1  155 344.44 L 137.78 361.65999999999997 A 17.22 17.22 0 0 0 155 344.44" fill="#fcfcfc"/><path d="M 155 361.65999999999997 A 17.22 17.22 0 0 1  172.22 344.44 L 155 361.65999999999997 A 17.22 17.22 0 0 0 172.22 344.44" fill="#fdfdfd"/><path d="M 137.78 378.89 A 17.22 17.22 0 0 1  155 361.67 L 137.78 378.89 A 17.22 17.22 0 0 0 155 361.67" fill="#fdfdfd"/><path d="M 155 361.67 A 17.22 17.22 0 0 1  172.22 378.89 L 155 361.67 A 17.22 17.22 0 0 0 172.22 378.89" fill="#fcfcfc"/><path d="M 172.22 378.88 A 34.44 34.44 0 0 1  206.66 344.44 L 172.22 378.88 A 34.44 34.44 0 0 0 206.66 344.44" fill="#fefefe"/><path d="M 206.67 378.88 A 34.44 34.44 0 0 1  241.10999999999999 344.44 L 206.67 378.88 A 34.44 34.44 0 0 0 241.10999999999999 344.44" fill="#e6ded3"/><path d="M 241.11 344.44 A 34.44 34.44 0 0 1  275.55 378.88 L 241.11 344.44 A 34.44 34.44 0 0 0 275.55 378.88" fill="#ffffff"/><path d="M 275.56 344.44 A 34.44 34.44 0 0 1  310 378.88 L 275.56 344.44 A 34.44 34.44 0 0 0 310 378.88" fill="#ffffff"/><rect x="310" y="344.44444444444446" width="34.44444444444444" height="34.44444444444444" fill="#ffffff"/><path d="M 310 344.44 A 17.22 17.22 0 0 1  327.22 361.65999999999997 L 310 344.44 A 17.22 17.22 0 0 0 327.22 361.65999999999997" fill="#fefefe"/><path d="M 327.22 344.44 A 17.22 17.22 0 0 1  344.44000000000005 361.65999999999997 L 327.22 344.44 A 17.22 17.22 0 0 0 344.44000000000005 361.65999999999997" fill="#fdfdfd"/><path d="M 310 361.67 A 17.22 17.22 0 0 1  327.22 378.89 L 310 361.67 A 17.22 17.22 0 0 0 327.22 378.89" fill="#c7b49c"/><path d="M 327.22 378.89 A 17.22 17.22 0 0 1  344.44000000000005 361.67 L 327.22 378.89 A 17.22 17.22 0 0 0 344.44000000000005 361.67" fill="#e9e2d8"/><rect x="344.44444444444446" y="344.44444444444446" width="34.44444444444444" height="34.44444444444444" fill="#ffffff"/><path d="M 344.44 344.44 A 17.22 17.22 0 0 1  361.65999999999997 361.65999999999997 L 344.44 344.44 A 17.22 17.22 0 0 0 361.65999999999997 361.65999999999997" fill="#dbcfbf"/><path d="M 361.67 344.44 A 17.22 17.22 0 0 1  378.89 361.65999999999997 L 361.67 344.44 A 17.22 17.22 0 0 0 378.89 361.65999999999997" fill="#fefdfc"/><path d="M 344.44 361.67 A 17.22 17.22 0 0 1  361.65999999999997 378.89 L 344.44 361.67 A 17.22 17.22 0 0 0 361.65999999999997 378.89" fill="#ccbba5"/><path d="M 361.67 378.89 A 17.22 17.22 0 0 1  378.89 361.67 L 361.67 378.89 A 17.22 17.22 0 0 0 378.89 361.67" fill="#e3dace"/><rect x="378.88888888888886" y="344.44444444444446" width="34.44444444444444" height="34.44444444444444" fill="#ffffff"/><path d="M 378.89 361.65999999999997 A 17.22 17.22 0 0 1  396.11 344.44 L 378.89 361.65999999999997 A 17.22 17.22 0 0 0 396.11 344.44" fill="#fdfdfd"/><path d="M 396.11 361.65999999999997 A 17.22 17.22 0 0 1  413.33000000000004 344.44 L 396.11 361.65999999999997 A 17.22 17.22 0 0 0 413.33000000000004 344.44" fill="#fcfcfc"/><path d="M 378.89 361.67 A 17.22 17.22 0 0 1  396.11 378.89 L 378.89 361.67 A 17.22 17.22 0 0 0 396.11 378.89" fill="#fcfcfc"/><path d="M 396.11 378.89 A 17.22 17.22 0 0 1  413.33000000000004 361.67 L 396.11 378.89 A 17.22 17.22 0 0 0 413.33000000000004 361.67" fill="#fefefe"/><path d="M 0 413.33 A 34.44 34.44 0 0 1  34.44 378.89 L 0 413.33 A 34.44 34.44 0 0 0 34.44 378.89" fill="#e2d9cc"/><path d="M 34.44 413.33 A 34.44 34.44 0 0 1  68.88 378.89 L 34.44 413.33 A 34.44 34.44 0 0 0 68.88 378.89" fill="#ffffff"/><path d="M 68.89 413.33 A 34.44 34.44 0 0 1  103.33 378.89 L 68.89 413.33 A 34.44 34.44 0 0 0 103.33 378.89" fill="#fdfdfd"/><path d="M 103.33 378.89 A 34.44 34.44 0 0 1  137.76999999999998 413.33 L 103.33 378.89 A 34.44 34.44 0 0 0 137.76999999999998 413.33" fill="#d1c2ae"/><path d="M 137.78 413.33 A 34.44 34.44 0 0 1  172.22 378.89 L 137.78 413.33 A 34.44 34.44 0 0 0 172.22 378.89" fill="#ccbba5"/><rect x="172.22222222222223" y="378.88888888888886" width="34.44444444444444" height="34.44444444444444" fill="#ffffff"/><path d="M 172.22 378.89 A 17.22 17.22 0 0 1  189.44 396.11 L 172.22 378.89 A 17.22 17.22 0 0 0 189.44 396.11" fill="#fdfdfd"/><path d="M 189.44 378.89 A 17.22 17.22 0 0 1  206.66 396.11 L 189.44 378.89 A 17.22 17.22 0 0 0 206.66 396.11" fill="#eee9e1"/><path d="M 172.22 413.33000000000004 A 17.22 17.22 0 0 1  189.44 396.11 L 172.22 413.33000000000004 A 17.22 17.22 0 0 0 189.44 396.11" fill="#fefefe"/><path d="M 189.44 396.11 A 17.22 17.22 0 0 1  206.66 413.33000000000004 L 189.44 396.11 A 17.22 17.22 0 0 0 206.66 413.33000000000004" fill="#d0c1ad"/><rect x="206.66666666666666" y="378.88888888888886" width="34.44444444444444" height="34.44444444444444" fill="#ffffff"/><path d="M 206.67 396.11 A 17.22 17.22 0 0 1  223.89 378.89 L 206.67 396.11 A 17.22 17.22 0 0 0 223.89 378.89" fill="#fdfdfd"/><path d="M 223.89 396.11 A 17.22 17.22 0 0 1  241.10999999999999 378.89 L 223.89 396.11 A 17.22 17.22 0 0 0 241.10999999999999 378.89" fill="#dacebe"/><path d="M 206.67 413.33000000000004 A 17.22 17.22 0 0 1  223.89 396.11 L 206.67 413.33000000000004 A 17.22 17.22 0 0 0 223.89 396.11" fill="#fdfdfd"/><path d="M 223.89 413.33000000000004 A 17.22 17.22 0 0 1  241.10999999999999 396.11 L 223.89 413.33000000000004 A 17.22 17.22 0 0 0 241.10999999999999 396.11" fill="#dcd1c1"/><path d="M 241.11 378.89 A 34.44 34.44 0 0 1  275.55 413.33 L 241.11 378.89 A 34.44 34.44 0 0 0 275.55 413.33" fill="#d6c8b6"/><path d="M 275.56 413.33 A 34.44 34.44 0 0 1  310 378.89 L 275.56 413.33 A 34.44 34.44 0 0 0 310 378.89" fill="#d2c3af"/><rect x="310" y="378.88888888888886" width="34.44444444444444" height="34.44444444444444" fill="#ffffff"/><path d="M 310 378.89 A 17.22 17.22 0 0 1  327.22 396.11 L 310 378.89 A 17.22 17.22 0 0 0 327.22 396.11" fill="#c9b79f"/><path d="M 327.22 396.11 A 17.22 17.22 0 0 1  344.44000000000005 378.89 L 327.22 396.11 A 17.22 17.22 0 0 0 344.44000000000005 378.89" fill="#d5c7b5"/><path d="M 310 413.33000000000004 A 17.22 17.22 0 0 1  327.22 396.11 L 310 413.33000000000004 A 17.22 17.22 0 0 0 327.22 396.11" fill="#fcfcfc"/><path d="M 327.22 396.11 A 17.22 17.22 0 0 1  344.44000000000005 413.33000000000004 L 327.22 396.11 A 17.22 17.22 0 0 0 344.44000000000005 413.33000000000004" fill="#cfbfaa"/><path d="M 344.44 413.33 A 34.44 34.44 0 0 1  378.88 378.89 L 344.44 413.33 A 34.44 34.44 0 0 0 378.88 378.89" fill="#e8e1d7"/><rect x="378.88888888888886" y="378.88888888888886" width="34.44444444444444" height="34.44444444444444" fill="#ffffff"/><path d="M 378.89 378.89 A 17.22 17.22 0 0 1  396.11 396.11 L 378.89 378.89 A 17.22 17.22 0 0 0 396.11 396.11" fill="#e3d9cd"/><path d="M 396.11 396.11 A 17.22 17.22 0 0 1  413.33000000000004 378.89 L 396.11 396.11 A 17.22 17.22 0 0 0 413.33000000000004 378.89" fill="#fefefe"/><path d="M 378.89 413.33000000000004 A 17.22 17.22 0 0 1  396.11 396.11 L 378.89 413.33000000000004 A 17.22 17.22 0 0 0 396.11 396.11" fill="#cdbda7"/><path d="M 396.11 413.33000000000004 A 17.22 17.22 0 0 1  413.33000000000004 396.11 L 396.11 413.33000000000004 A 17.22 17.22 0 0 0 413.33000000000004 396.11" fill="#f5f2ee"/><rect x="0" y="413.3333333333333" width="34.44444444444444" height="34.44444444444444" fill="#ffffff"/><path d="M 0 413.33 A 17.22 17.22 0 0 1  17.22 430.54999999999995 L 0 413.33 A 17.22 17.22 0 0 0 17.22 430.54999999999995" fill="#ebe4db"/><path d="M 17.22 430.54999999999995 A 17.22 17.22 0 0 1  34.44 413.33 L 17.22 430.54999999999995 A 17.22 17.22 0 0 0 34.44 413.33" fill="#c7b59c"/><path d="M 0 430.56 A 17.22 17.22 0 0 1  17.22 447.78 L 0 430.56 A 17.22 17.22 0 0 0 17.22 447.78" fill="#f0ebe5"/><path d="M 17.22 430.56 A 17.22 17.22 0 0 1  34.44 447.78 L 17.22 430.56 A 17.22 17.22 0 0 0 34.44 447.78" fill="#fdfdfd"/><path d="M 34.44 447.77 A 34.44 34.44 0 0 1  68.88 413.33 L 34.44 447.77 A 34.44 34.44 0 0 0 68.88 413.33" fill="#cdbda7"/><path d="M 68.89 413.33 A 34.44 34.44 0 0 1  103.33 447.77 L 68.89 413.33 A 34.44 34.44 0 0 0 103.33 447.77" fill="#fdfdfd"/><path d="M 103.33 447.77 A 34.44 34.44 0 0 1  137.76999999999998 413.33 L 103.33 447.77 A 34.44 34.44 0 0 0 137.76999999999998 413.33" fill="#d2c3b0"/><rect x="137.77777777777777" y="413.3333333333333" width="34.44444444444444" height="34.44444444444444" fill="#ffffff"/><path d="M 137.78 413.33 A 17.22 17.22 0 0 1  155 430.54999999999995 L 137.78 413.33 A 17.22 17.22 0 0 0 155 430.54999999999995" fill="#d9cdbc"/><path d="M 155 430.54999999999995 A 17.22 17.22 0 0 1  172.22 413.33 L 155 430.54999999999995 A 17.22 17.22 0 0 0 172.22 413.33" fill="#fefefe"/><path d="M 137.78 430.56 A 17.22 17.22 0 0 1  155 447.78 L 137.78 430.56 A 17.22 17.22 0 0 0 155 447.78" fill="#fdfdfd"/><path d="M 155 447.78 A 17.22 17.22 0 0 1  172.22 430.56 L 155 447.78 A 17.22 17.22 0 0 0 172.22 430.56" fill="#fdfdfd"/><rect x="172.22222222222223" y="413.3333333333333" width="34.44444444444444" height="34.44444444444444" fill="#ffffff"/><path d="M 172.22 413.33 A 17.22 17.22 0 0 1  189.44 430.54999999999995 L 172.22 413.33 A 17.22 17.22 0 0 0 189.44 430.54999999999995" fill="#fdfcfb"/><path d="M 189.44 413.33 A 17.22 17.22 0 0 1  206.66 430.54999999999995 L 189.44 413.33 A 17.22 17.22 0 0 0 206.66 430.54999999999995" fill="#fefefe"/><path d="M 172.22 430.56 A 17.22 17.22 0 0 1  189.44 447.78 L 172.22 430.56 A 17.22 17.22 0 0 0 189.44 447.78" fill="#cfc0ab"/><path d="M 189.44 447.78 A 17.22 17.22 0 0 1  206.66 430.56 L 189.44 447.78 A 17.22 17.22 0 0 0 206.66 430.56" fill="#fdfdfd"/><path d="M 206.67 447.77 A 34.44 34.44 0 0 1  241.10999999999999 413.33 L 206.67 447.77 A 34.44 34.44 0 0 0 241.10999999999999 413.33" fill="#fefefe"/><path d="M 241.11 413.33 A 34.44 34.44 0 0 1  275.55 447.77 L 241.11 413.33 A 34.44 34.44 0 0 0 275.55 447.77" fill="#ffffff"/><path d="M 275.56 447.77 A 34.44 34.44 0 0 1  310 413.33 L 275.56 447.77 A 34.44 34.44 0 0 0 310 413.33" fill="#fefefe"/><path d="M 310 413.33 A 34.44 34.44 0 0 1  344.44 447.77 L 310 413.33 A 34.44 34.44 0 0 0 344.44 447.77" fill="#fdfdfd"/><path d="M 344.44 447.77 A 34.44 34.44 0 0 1  378.88 413.33 L 344.44 447.77 A 34.44 34.44 0 0 0 378.88 413.33" fill="#fdfdfd"/><path d="M 378.89 447.77 A 34.44 34.44 0 0 1  413.33 413.33 L 378.89 447.77 A 34.44 34.44 0 0 0 413.33 413.33" fill="#fefefe"/><path d="M 0 447.78 A 34.44 34.44 0 0 1  34.44 482.21999999999997 L 0 447.78 A 34.44 34.44 0 0 0 34.44 482.21999999999997" fill="#fefefe"/><path d="M 34.44 447.78 A 34.44 34.44 0 0 1  68.88 482.21999999999997 L 34.44 447.78 A 34.44 34.44 0 0 0 68.88 482.21999999999997" fill="#fdfdfd"/><path d="M 68.89 482.21999999999997 A 34.44 34.44 0 0 1  103.33 447.78 L 68.89 482.21999999999997 A 34.44 34.44 0 0 0 103.33 447.78" fill="#d7cab8"/><rect x="103.33333333333333" y="447.77777777777777" width="34.44444444444444" height="34.44444444444444" fill="#ffffff"/><path d="M 103.33 447.78 A 17.22 17.22 0 0 1  120.55 465 L 103.33 447.78 A 17.22 17.22 0 0 0 120.55 465" fill="#eee9e1"/><path d="M 120.56 465 A 17.22 17.22 0 0 1  137.78 447.78 L 120.56 465 A 17.22 17.22 0 0 0 137.78 447.78" fill="#e5dcd1"/><path d="M 103.33 482.22 A 17.22 17.22 0 0 1  120.55 465 L 103.33 482.22 A 17.22 17.22 0 0 0 120.55 465" fill="#fdfdfd"/><path d="M 120.56 465 A 17.22 17.22 0 0 1  137.78 482.22 L 120.56 465 A 17.22 17.22 0 0 0 137.78 482.22" fill="#efeae4"/><path d="M 137.78 482.21999999999997 A 34.44 34.44 0 0 1  172.22 447.78 L 137.78 482.21999999999997 A 34.44 34.44 0 0 0 172.22 447.78" fill="#fefefe"/><path d="M 172.22 482.21999999999997 A 34.44 34.44 0 0 1  206.66 447.78 L 172.22 482.21999999999997 A 34.44 34.44 0 0 0 206.66 447.78" fill="#ddd2c3"/><path d="M 206.67 482.21999999999997 A 34.44 34.44 0 0 1  241.10999999999999 447.78 L 206.67 482.21999999999997 A 34.44 34.44 0 0 0 241.10999999999999 447.78" fill="#fdfdfd"/><path d="M 241.11 482.21999999999997 A 34.44 34.44 0 0 1  275.55 447.78 L 241.11 482.21999999999997 A 34.44 34.44 0 0 0 275.55 447.78" fill="#d0c0ab"/><rect x="275.55555555555554" y="447.77777777777777" width="34.44444444444444" height="34.44444444444444" fill="#ffffff"/><path d="M 275.56 447.78 A 17.22 17.22 0 0 1  292.78 465 L 275.56 447.78 A 17.22 17.22 0 0 0 292.78 465" fill="#fefefe"/><path d="M 292.78 465 A 17.22 17.22 0 0 1  310 447.78 L 292.78 465 A 17.22 17.22 0 0 0 310 447.78" fill="#cebea9"/><path d="M 275.56 465 A 17.22 17.22 0 0 1  292.78 482.22 L 275.56 465 A 17.22 17.22 0 0 0 292.78 482.22" fill="#ffffff"/><path d="M 292.78 482.22 A 17.22 17.22 0 0 1  310 465 L 292.78 482.22 A 17.22 17.22 0 0 0 310 465" fill="#fefefe"/><path d="M 310 482.21999999999997 A 34.44 34.44 0 0 1  344.44 447.78 L 310 482.21999999999997 A 34.44 34.44 0 0 0 344.44 447.78" fill="#ddd2c3"/><rect x="344.44444444444446" y="447.77777777777777" width="34.44444444444444" height="34.44444444444444" fill="#ffffff"/><path d="M 344.44 447.78 A 17.22 17.22 0 0 1  361.65999999999997 465 L 344.44 447.78 A 17.22 17.22 0 0 0 361.65999999999997 465" fill="#ffffff"/><path d="M 361.67 447.78 A 17.22 17.22 0 0 1  378.89 465 L 361.67 447.78 A 17.22 17.22 0 0 0 378.89 465" fill="#fefefe"/><path d="M 344.44 482.22 A 17.22 17.22 0 0 1  361.65999999999997 465 L 344.44 482.22 A 17.22 17.22 0 0 0 361.65999999999997 465" fill="#fdfdfd"/><path d="M 361.67 482.22 A 17.22 17.22 0 0 1  378.89 465 L 361.67 482.22 A 17.22 17.22 0 0 0 378.89 465" fill="#dfd4c6"/><rect x="378.88888888888886" y="447.77777777777777" width="34.44444444444444" height="34.44444444444444" fill="#ffffff"/><path d="M 378.89 465 A 17.22 17.22 0 0 1  396.11 447.78 L 378.89 465 A 17.22 17.22 0 0 0 396.11 447.78" fill="#c5b198"/><path d="M 396.11 465 A 17.22 17.22 0 0 1  413.33000000000004 447.78 L 396.11 465 A 17.22 17.22 0 0 0 413.33000000000004 447.78" fill="#c6b39a"/><path d="M 378.89 482.22 A 17.22 17.22 0 0 1  396.11 465 L 378.89 482.22 A 17.22 17.22 0 0 0 396.11 465" fill="#dacebd"/><path d="M 396.11 465 A 17.22 17.22 0 0 1  413.33000000000004 482.22 L 396.11 465 A 17.22 17.22 0 0 0 413.33000000000004 482.22" fill="#fdfdfd"/><path d="M 0 482.22 A 34.44 34.44 0 0 1  34.44 516.6600000000001 L 0 482.22 A 34.44 34.44 0 0 0 34.44 516.6600000000001" fill="#fcfcfc"/><path d="M 34.44 516.6600000000001 A 34.44 34.44 0 0 1  68.88 482.22 L 34.44 516.6600000000001 A 34.44 34.44 0 0 0 68.88 482.22" fill="#ddd2c3"/><path d="M 68.89 516.6600000000001 A 34.44 34.44 0 0 1  103.33 482.22 L 68.89 516.6600000000001 A 34.44 34.44 0 0 0 103.33 482.22" fill="#fdfdfd"/><path d="M 103.33 482.22 A 34.44 34.44 0 0 1  137.76999999999998 516.6600000000001 L 103.33 482.22 A 34.44 34.44 0 0 0 137.76999999999998 516.6600000000001" fill="#fefefe"/><rect x="137.77777777777777" y="482.2222222222222" width="34.44444444444444" height="34.44444444444444" fill="#ffffff"/><path d="M 137.78 499.44000000000005 A 17.22 17.22 0 0 1  155 482.22 L 137.78 499.44000000000005 A 17.22 17.22 0 0 0 155 482.22" fill="#fdfdfd"/><path d="M 155 482.22 A 17.22 17.22 0 0 1  172.22 499.44000000000005 L 155 482.22 A 17.22 17.22 0 0 0 172.22 499.44000000000005" fill="#f1ece6"/><path d="M 137.78 516.66 A 17.22 17.22 0 0 1  155 499.44 L 137.78 516.66 A 17.22 17.22 0 0 0 155 499.44" fill="#fdfdfd"/><path d="M 155 516.66 A 17.22 17.22 0 0 1  172.22 499.44 L 155 516.66 A 17.22 17.22 0 0 0 172.22 499.44" fill="#ffffff"/><path d="M 172.22 482.22 A 34.44 34.44 0 0 1  206.66 516.6600000000001 L 172.22 482.22 A 34.44 34.44 0 0 0 206.66 516.6600000000001" fill="#fefefe"/><path d="M 206.67 482.22 A 34.44 34.44 0 0 1  241.10999999999999 516.6600000000001 L 206.67 482.22 A 34.44 34.44 0 0 0 241.10999999999999 516.6600000000001" fill="#ebe5dc"/><path d="M 241.11 482.22 A 34.44 34.44 0 0 1  275.55 516.6600000000001 L 241.11 482.22 A 34.44 34.44 0 0 0 275.55 516.6600000000001" fill="#fefefe"/><path d="M 275.56 516.6600000000001 A 34.44 34.44 0 0 1  310 482.22 L 275.56 516.6600000000001 A 34.44 34.44 0 0 0 310 482.22" fill="#fefefe"/><path d="M 310 516.6600000000001 A 34.44 34.44 0 0 1  344.44 482.22 L 310 516.6600000000001 A 34.44 34.44 0 0 0 344.44 482.22" fill="#fdfdfd"/><path d="M 344.44 516.6600000000001 A 34.44 34.44 0 0 1  378.88 482.22 L 344.44 516.6600000000001 A 34.44 34.44 0 0 0 378.88 482.22" fill="#fdfdfd"/><path d="M 378.89 482.22 A 34.44 34.44 0 0 1  413.33 516.6600000000001 L 378.89 482.22 A 34.44 34.44 0 0 0 413.33 516.6600000000001" fill="#fefefe"/><path d="M 0 516.67 A 34.44 34.44 0 0 1  34.44 551.1099999999999 L 0 516.67 A 34.44 34.44 0 0 0 34.44 551.1099999999999" fill="#fcfcfc"/><path d="M 34.44 516.67 A 34.44 34.44 0 0 1  68.88 551.1099999999999 L 34.44 516.67 A 34.44 34.44 0 0 0 68.88 551.1099999999999" fill="#e6ded4"/><path d="M 68.89 516.67 A 34.44 34.44 0 0 1  103.33 551.1099999999999 L 68.89 516.67 A 34.44 34.44 0 0 0 103.33 551.1099999999999" fill="#f9f6f4"/><path d="M 103.33 551.1099999999999 A 34.44 34.44 0 0 1  137.76999999999998 516.67 L 103.33 551.1099999999999 A 34.44 34.44 0 0 0 137.76999999999998 516.67" fill="#fefefe"/><path d="M 137.78 516.67 A 34.44 34.44 0 0 1  172.22 551.1099999999999 L 137.78 516.67 A 34.44 34.44 0 0 0 172.22 551.1099999999999" fill="#fcfcfc"/><path d="M 172.22 551.1099999999999 A 34.44 34.44 0 0 1  206.66 516.67 L 172.22 551.1099999999999 A 34.44 34.44 0 0 0 206.66 516.67" fill="#fdfdfd"/><rect x="206.66666666666666" y="516.6666666666666" width="34.44444444444444" height="34.44444444444444" fill="#ffffff"/><path d="M 206.67 516.67 A 17.22 17.22 0 0 1  223.89 533.89 L 206.67 516.67 A 17.22 17.22 0 0 0 223.89 533.89" fill="#fcfcfc"/><path d="M 223.89 533.89 A 17.22 17.22 0 0 1  241.10999999999999 516.67 L 223.89 533.89 A 17.22 17.22 0 0 0 241.10999999999999 516.67" fill="#fefefe"/><path d="M 206.67 533.89 A 17.22 17.22 0 0 1  223.89 551.11 L 206.67 533.89 A 17.22 17.22 0 0 0 223.89 551.11" fill="#e9e1d7"/><path d="M 223.89 533.89 A 17.22 17.22 0 0 1  241.10999999999999 551.11 L 223.89 533.89 A 17.22 17.22 0 0 0 241.10999999999999 551.11" fill="#dbcfc0"/><path d="M 241.11 516.67 A 34.44 34.44 0 0 1  275.55 551.1099999999999 L 241.11 516.67 A 34.44 34.44 0 0 0 275.55 551.1099999999999" fill="#ffffff"/><path d="M 275.56 551.1099999999999 A 34.44 34.44 0 0 1  310 516.67 L 275.56 551.1099999999999 A 34.44 34.44 0 0 0 310 516.67" fill="#fdfdfd"/><path d="M 310 551.1099999999999 A 34.44 34.44 0 0 1  344.44 516.67 L 310 551.1099999999999 A 34.44 34.44 0 0 0 344.44 516.67" fill="#cfbfaa"/><path d="M 344.44 551.1099999999999 A 34.44 34.44 0 0 1  378.88 516.67 L 344.44 551.1099999999999 A 34.44 34.44 0 0 0 378.88 516.67" fill="#faf9f6"/><path d="M 378.89 551.1099999999999 A 34.44 34.44 0 0 1  413.33 516.67 L 378.89 551.1099999999999 A 34.44 34.44 0 0 0 413.33 516.67" fill="#f0ebe4"/><rect x="0" y="551.1111111111111" width="34.44444444444444" height="34.44444444444444" fill="#ffffff"/><path d="M 0 568.33 A 17.22 17.22 0 0 1  17.22 551.11 L 0 568.33 A 17.22 17.22 0 0 0 17.22 551.11" fill="#fefefe"/><path d="M 17.22 568.33 A 17.22 17.22 0 0 1  34.44 551.11 L 17.22 568.33 A 17.22 17.22 0 0 0 34.44 551.11" fill="#ccbba4"/><path d="M 0 568.33 A 17.22 17.22 0 0 1  17.22 585.5500000000001 L 0 568.33 A 17.22 17.22 0 0 0 17.22 585.5500000000001" fill="#fdfdfd"/><path d="M 17.22 568.33 A 17.22 17.22 0 0 1  34.44 585.5500000000001 L 17.22 568.33 A 17.22 17.22 0 0 0 34.44 585.5500000000001" fill="#fdfdfd"/><rect x="34.44444444444444" y="551.1111111111111" width="34.44444444444444" height="34.44444444444444" fill="#ffffff"/><path d="M 34.44 551.11 A 17.22 17.22 0 0 1  51.66 568.33 L 34.44 551.11 A 17.22 17.22 0 0 0 51.66 568.33" fill="#fdfdfd"/><path d="M 51.67 568.33 A 17.22 17.22 0 0 1  68.89 551.11 L 51.67 568.33 A 17.22 17.22 0 0 0 68.89 551.11" fill="#e4dace"/><path d="M 34.44 568.33 A 17.22 17.22 0 0 1  51.66 585.5500000000001 L 34.44 568.33 A 17.22 17.22 0 0 0 51.66 585.5500000000001" fill="#d3c4b1"/><path d="M 51.67 585.5500000000001 A 17.22 17.22 0 0 1  68.89 568.33 L 51.67 585.5500000000001 A 17.22 17.22 0 0 0 68.89 568.33" fill="#c9b8a0"/><path d="M 68.89 585.55 A 34.44 34.44 0 0 1  103.33 551.11 L 68.89 585.55 A 34.44 34.44 0 0 0 103.33 551.11" fill="#e7dfd5"/><path d="M 103.33 551.11 A 34.44 34.44 0 0 1  137.76999999999998 585.55 L 103.33 551.11 A 34.44 34.44 0 0 0 137.76999999999998 585.55" fill="#fdfcfb"/><rect x="137.77777777777777" y="551.1111111111111" width="34.44444444444444" height="34.44444444444444" fill="#ffffff"/><path d="M 137.78 568.33 A 17.22 17.22 0 0 1  155 551.11 L 137.78 568.33 A 17.22 17.22 0 0 0 155 551.11" fill="#f6f3ef"/><path d="M 155 551.11 A 17.22 17.22 0 0 1  172.22 568.33 L 155 551.11 A 17.22 17.22 0 0 0 172.22 568.33" fill="#f5f2ed"/><path d="M 137.78 568.33 A 17.22 17.22 0 0 1  155 585.5500000000001 L 137.78 568.33 A 17.22 17.22 0 0 0 155 585.5500000000001" fill="#fdfdfd"/><path d="M 155 585.5500000000001 A 17.22 17.22 0 0 1  172.22 568.33 L 155 585.5500000000001 A 17.22 17.22 0 0 0 172.22 568.33" fill="#fcfcfc"/><rect x="172.22222222222223" y="551.1111111111111" width="34.44444444444444" height="34.44444444444444" fill="#ffffff"/><path d="M 172.22 551.11 A 17.22 17.22 0 0 1  189.44 568.33 L 172.22 551.11 A 17.22 17.22 0 0 0 189.44 568.33" fill="#ece5dd"/><path d="M 189.44 568.33 A 17.22 17.22 0 0 1  206.66 551.11 L 189.44 568.33 A 17.22 17.22 0 0 0 206.66 551.11" fill="#fdfdfd"/><path d="M 172.22 568.33 A 17.22 17.22 0 0 1  189.44 585.5500000000001 L 172.22 568.33 A 17.22 17.22 0 0 0 189.44 585.5500000000001" fill="#d5c7b4"/><path d="M 189.44 568.33 A 17.22 17.22 0 0 1  206.66 585.5500000000001 L 189.44 568.33 A 17.22 17.22 0 0 0 206.66 585.5500000000001" fill="#fdfdfd"/><rect x="206.66666666666666" y="551.1111111111111" width="34.44444444444444" height="34.44444444444444" fill="#ffffff"/><path d="M 206.67 551.11 A 17.22 17.22 0 0 1  223.89 568.33 L 206.67 551.11 A 17.22 17.22 0 0 0 223.89 568.33" fill="#d4c6b3"/><path d="M 223.89 551.11 A 17.22 17.22 0 0 1  241.10999999999999 568.33 L 223.89 551.11 A 17.22 17.22 0 0 0 241.10999999999999 568.33" fill="#c3af94"/><path d="M 206.67 585.5500000000001 A 17.22 17.22 0 0 1  223.89 568.33 L 206.67 585.5500000000001 A 17.22 17.22 0 0 0 223.89 568.33" fill="#ffffff"/><path d="M 223.89 568.33 A 17.22 17.22 0 0 1  241.10999999999999 585.5500000000001 L 223.89 568.33 A 17.22 17.22 0 0 0 241.10999999999999 585.5500000000001" fill="#d4c6b3"/><rect x="241.1111111111111" y="551.1111111111111" width="34.44444444444444" height="34.44444444444444" fill="#ffffff"/><path d="M 241.11 551.11 A 17.22 17.22 0 0 1  258.33000000000004 568.33 L 241.11 551.11 A 17.22 17.22 0 0 0 258.33000000000004 568.33" fill="#c4b096"/><path d="M 258.33 551.11 A 17.22 17.22 0 0 1  275.54999999999995 568.33 L 258.33 551.11 A 17.22 17.22 0 0 0 275.54999999999995 568.33" fill="#fefefd"/><path d="M 241.11 568.33 A 17.22 17.22 0 0 1  258.33000000000004 585.5500000000001 L 241.11 568.33 A 17.22 17.22 0 0 0 258.33000000000004 585.5500000000001" fill="#fcfcfc"/><path d="M 258.33 585.5500000000001 A 17.22 17.22 0 0 1  275.54999999999995 568.33 L 258.33 585.5500000000001 A 17.22 17.22 0 0 0 275.54999999999995 568.33" fill="#d9cdbc"/><rect x="275.55555555555554" y="551.1111111111111" width="34.44444444444444" height="34.44444444444444" fill="#ffffff"/><path d="M 275.56 568.33 A 17.22 17.22 0 0 1  292.78 551.11 L 275.56 568.33 A 17.22 17.22 0 0 0 292.78 551.11" fill="#fdfdfd"/><path d="M 292.78 551.11 A 17.22 17.22 0 0 1  310 568.33 L 292.78 551.11 A 17.22 17.22 0 0 0 310 568.33" fill="#d1c2ae"/><path d="M 275.56 585.5500000000001 A 17.22 17.22 0 0 1  292.78 568.33 L 275.56 585.5500000000001 A 17.22 17.22 0 0 0 292.78 568.33" fill="#d5c7b4"/><path d="M 292.78 585.5500000000001 A 17.22 17.22 0 0 1  310 568.33 L 292.78 585.5500000000001 A 17.22 17.22 0 0 0 310 568.33" fill="#c4b197"/><path d="M 310 585.55 A 34.44 34.44 0 0 1  344.44 551.11 L 310 585.55 A 34.44 34.44 0 0 0 344.44 551.11" fill="#fefefe"/><rect x="344.44444444444446" y="551.1111111111111" width="34.44444444444444" height="34.44444444444444" fill="#ffffff"/><path d="M 344.44 568.33 A 17.22 17.22 0 0 1  361.65999999999997 551.11 L 344.44 568.33 A 17.22 17.22 0 0 0 361.65999999999997 551.11" fill="#fcfcfc"/><path d="M 361.67 551.11 A 17.22 17.22 0 0 1  378.89 568.33 L 361.67 551.11 A 17.22 17.22 0 0 0 378.89 568.33" fill="#d0c0ab"/><path d="M 344.44 568.33 A 17.22 17.22 0 0 1  361.65999999999997 585.5500000000001 L 344.44 568.33 A 17.22 17.22 0 0 0 361.65999999999997 585.5500000000001" fill="#e7dfd4"/><path d="M 361.67 585.5500000000001 A 17.22 17.22 0 0 1  378.89 568.33 L 361.67 585.5500000000001 A 17.22 17.22 0 0 0 378.89 568.33" fill="#d6c8b6"/><path d="M 378.89 585.55 A 34.44 34.44 0 0 1  413.33 551.11 L 378.89 585.55 A 34.44 34.44 0 0 0 413.33 551.11" fill="#ccbca5"/><rect x="0" y="585.5555555555555" width="34.44444444444444" height="34.44444444444444" fill="#ffffff"/><path d="M 0 585.56 A 17.22 17.22 0 0 1  17.22 602.78 L 0 585.56 A 17.22 17.22 0 0 0 17.22 602.78" fill="#fefefe"/><path d="M 17.22 602.78 A 17.22 17.22 0 0 1  34.44 585.56 L 17.22 602.78 A 17.22 17.22 0 0 0 34.44 585.56" fill="#fdfdfd"/><path d="M 0 620 A 17.22 17.22 0 0 1  17.22 602.78 L 0 620 A 17.22 17.22 0 0 0 17.22 602.78" fill="#fcfcfc"/><path d="M 17.22 620 A 17.22 17.22 0 0 1  34.44 602.78 L 17.22 620 A 17.22 17.22 0 0 0 34.44 602.78" fill="#eae3d9"/><rect x="34.44444444444444" y="585.5555555555555" width="34.44444444444444" height="34.44444444444444" fill="#ffffff"/><path d="M 34.44 585.56 A 17.22 17.22 0 0 1  51.66 602.78 L 34.44 585.56 A 17.22 17.22 0 0 0 51.66 602.78" fill="#fefefe"/><path d="M 51.67 602.78 A 17.22 17.22 0 0 1  68.89 585.56 L 51.67 602.78 A 17.22 17.22 0 0 0 68.89 585.56" fill="#cfbfa9"/><path d="M 34.44 620 A 17.22 17.22 0 0 1  51.66 602.78 L 34.44 620 A 17.22 17.22 0 0 0 51.66 602.78" fill="#fefefe"/><path d="M 51.67 620 A 17.22 17.22 0 0 1  68.89 602.78 L 51.67 620 A 17.22 17.22 0 0 0 68.89 602.78" fill="#e9e2d8"/><path d="M 68.89 585.56 A 34.44 34.44 0 0 1  103.33 620 L 68.89 585.56 A 34.44 34.44 0 0 0 103.33 620" fill="#ccbca5"/><path d="M 103.33 585.56 A 34.44 34.44 0 0 1  137.76999999999998 620 L 103.33 585.56 A 34.44 34.44 0 0 0 137.76999999999998 620" fill="#fefefe"/><path d="M 137.78 585.56 A 34.44 34.44 0 0 1  172.22 620 L 137.78 585.56 A 34.44 34.44 0 0 0 172.22 620" fill="#fdfdfd"/><rect x="172.22222222222223" y="585.5555555555555" width="34.44444444444444" height="34.44444444444444" fill="#ffffff"/><path d="M 172.22 602.78 A 17.22 17.22 0 0 1  189.44 585.56 L 172.22 602.78 A 17.22 17.22 0 0 0 189.44 585.56" fill="#dfd5c7"/><path d="M 189.44 585.56 A 17.22 17.22 0 0 1  206.66 602.78 L 189.44 585.56 A 17.22 17.22 0 0 0 206.66 602.78" fill="#fdfdfd"/><path d="M 172.22 620 A 17.22 17.22 0 0 1  189.44 602.78 L 172.22 620 A 17.22 17.22 0 0 0 189.44 602.78" fill="#dacebe"/><path d="M 189.44 620 A 17.22 17.22 0 0 1  206.66 602.78 L 189.44 620 A 17.22 17.22 0 0 0 206.66 602.78" fill="#fefefe"/><path d="M 206.67 585.56 A 34.44 34.44 0 0 1  241.10999999999999 620 L 206.67 585.56 A 34.44 34.44 0 0 0 241.10999999999999 620" fill="#fcfcfc"/><path d="M 241.11 620 A 34.44 34.44 0 0 1  275.55 585.56 L 241.11 620 A 34.44 34.44 0 0 0 275.55 585.56" fill="#ded4c5"/><rect x="275.55555555555554" y="585.5555555555555" width="34.44444444444444" height="34.44444444444444" fill="#ffffff"/><path d="M 275.56 585.56 A 17.22 17.22 0 0 1  292.78 602.78 L 275.56 585.56 A 17.22 17.22 0 0 0 292.78 602.78" fill="#fefefe"/><path d="M 292.78 602.78 A 17.22 17.22 0 0 1  310 585.56 L 292.78 602.78 A 17.22 17.22 0 0 0 310 585.56" fill="#ded3c4"/><path d="M 275.56 620 A 17.22 17.22 0 0 1  292.78 602.78 L 275.56 620 A 17.22 17.22 0 0 0 292.78 602.78" fill="#e6ded3"/><path d="M 292.78 602.78 A 17.22 17.22 0 0 1  310 620 L 292.78 602.78 A 17.22 17.22 0 0 0 310 620" fill="#ffffff"/><rect x="310" y="585.5555555555555" width="34.44444444444444" height="34.44444444444444" fill="#ffffff"/><path d="M 310 585.56 A 17.22 17.22 0 0 1  327.22 602.78 L 310 585.56 A 17.22 17.22 0 0 0 327.22 602.78" fill="#e1d8cb"/><path d="M 327.22 602.78 A 17.22 17.22 0 0 1  344.44000000000005 585.56 L 327.22 602.78 A 17.22 17.22 0 0 0 344.44000000000005 585.56" fill="#c4b197"/><path d="M 310 602.78 A 17.22 17.22 0 0 1  327.22 620 L 310 602.78 A 17.22 17.22 0 0 0 327.22 620" fill="#f4f0eb"/><path d="M 327.22 602.78 A 17.22 17.22 0 0 1  344.44000000000005 620 L 327.22 602.78 A 17.22 17.22 0 0 0 344.44000000000005 620" fill="#fefefe"/><path d="M 344.44 585.56 A 34.44 34.44 0 0 1  378.88 620 L 344.44 585.56 A 34.44 34.44 0 0 0 378.88 620" fill="#fdfdfd"/><path d="M 378.89 585.56 A 34.44 34.44 0 0 1  413.33 620 L 378.89 585.56 A 34.44 34.44 0 0 0 413.33 620" fill="#f2eee8"/></g></svg>